<svg width="17" height="24" viewBox="0 0 17 24" fill="none" xmlns="http://www.w3.org/2000/svg">
<path d="M8.53917 0.53833C4.34011 0.53833 0.923767 3.95468 0.923767 8.15373C0.923767 9.41428 1.23893 10.6641 1.83806 11.7727L8.12271 23.1391C8.20638 23.2906 8.36581 23.3845 8.53917 23.3845C8.71252 23.3845 8.87195 23.2906 8.95562 23.1391L15.2426 11.769C15.8394 10.6641 16.1546 9.41424 16.1546 8.15368C16.1546 3.95468 12.7382 0.53833 8.53917 0.53833ZM8.53917 11.9614C6.43964 11.9614 4.73149 10.2533 4.73149 8.15373C4.73149 6.0542 6.43964 4.34605 8.53917 4.34605C10.6387 4.34605 12.3468 6.0542 12.3468 8.15373C12.3468 10.2533 10.6387 11.9614 8.53917 11.9614Z" fill="#111111"/>
</svg>
