<svg width="27" height="18" viewBox="0 0 27 18" fill="none" xmlns="http://www.w3.org/2000/svg">
<path d="M24.8855 0.371582H1.34514C0.605245 0.371582 -6.10352e-05 0.976888 -6.10352e-05 1.71673V16.5136C-6.10352e-05 17.2534 0.605245 17.8588 1.34514 17.8588H24.8856C25.6254 17.8588 26.2308 17.2535 26.2308 16.5136V1.71673C26.2307 0.976888 25.6254 0.371582 24.8855 0.371582ZM24.3807 1.38039L13.8891 9.24972C13.7005 9.39328 13.4109 9.48309 13.1153 9.48175C12.8197 9.48309 12.5302 9.39328 12.3415 9.24972L1.84987 1.38039H24.3807ZM18.7765 9.76896L24.4934 16.8311C24.4992 16.8382 24.5062 16.8436 24.5123 16.85H1.71836C1.72441 16.8433 1.73148 16.8382 1.73722 16.8311L7.45419 9.76896C7.62935 9.5524 7.59616 9.23492 7.37919 9.05935C7.16263 8.88418 6.84515 8.91738 6.66993 9.13399L1.0088 16.1272V2.01095L11.7365 10.0567C12.1397 10.3571 12.6303 10.4892 13.1152 10.4906C13.5995 10.4895 14.0905 10.3574 14.494 10.0567L25.2216 2.01095V16.1271L19.5607 9.13399C19.3855 8.91743 19.0677 8.88413 18.8514 9.05935C18.6345 9.23451 18.6012 9.5524 18.7765 9.76896Z" fill="#111111"/>
</svg>
