<svg width="11" height="17" viewBox="0 0 11 17" fill="none" xmlns="http://www.w3.org/2000/svg">
<path d="M8.92466 3.0388H10.5881V0.00184842H7.56515C7.31298 -0.00864433 4.23895 -0.0674036 3.4422 2.97095C3.43066 3.00277 3.17604 3.72537 3.17604 5.41331L0.411896 5.4217V8.60695L3.17953 8.59891V17.0005H7.40706V8.60625H10.2051V5.41261H7.40706V4.40775C7.40706 3.78309 7.67043 3.0388 8.92466 3.0388ZM9.50561 6.11178V7.90638H6.70754V16.3006H3.87905V7.89729L1.11141 7.90534V6.11912L3.88639 6.11108L3.87905 5.75537C3.84267 3.96741 4.09765 3.21543 4.10919 3.1794C4.79681 0.562511 7.42245 0.69402 7.53507 0.701015L9.88859 0.701715V2.33963H8.92466C7.29024 2.33963 6.70789 3.40779 6.70789 4.4074V6.11178H9.50561Z" fill="#111111"/>
</svg>
