<svg width="15" height="16" viewBox="0 0 15 16" fill="none" xmlns="http://www.w3.org/2000/svg">
<g clip-path="url(#clip0_1_439)">
<path d="M10.9394 -0.000488281H4.06017C1.82125 -0.000488281 -0.000183105 1.94238 -0.000183105 4.33056V11.6686C-0.000183105 14.0566 1.82125 15.9995 4.06017 15.9995H10.9395C13.1783 15.9995 14.9998 14.0566 14.9998 11.6686V4.33056C14.9998 1.94238 13.1783 -0.000488281 10.9394 -0.000488281ZM14.1204 11.6686C14.1204 13.5394 12.6935 15.0615 10.9394 15.0615H4.06017C2.30614 15.0615 0.879179 13.5394 0.879179 11.6686V4.33056C0.879179 2.45959 2.30614 0.937498 4.06017 0.937498H10.9395C12.6935 0.937498 14.1204 2.45959 14.1204 4.33056V11.6686Z" fill="#111111"/>
<path d="M7.49982 3.62451C5.23824 3.62451 3.39838 5.58703 3.39838 7.99938C3.39838 10.4117 5.23824 12.3742 7.49982 12.3742C9.76139 12.3742 11.6013 10.4117 11.6013 7.99938C11.6013 5.58703 9.76139 3.62451 7.49982 3.62451ZM7.49982 11.4363C5.72324 11.4363 4.27774 9.89452 4.27774 7.99938C4.27774 6.10436 5.72324 4.5625 7.49982 4.5625C9.27651 4.5625 10.7219 6.10436 10.7219 7.99938C10.7219 9.89452 9.27651 11.4363 7.49982 11.4363Z" fill="#111111"/>
<path d="M11.6993 2.07153C11.031 2.07153 10.4874 2.65149 10.4874 3.36426C10.4874 4.07714 11.031 4.6571 11.6993 4.6571C12.3676 4.6571 12.9113 4.07714 12.9113 3.36426C12.9113 2.65137 12.3676 2.07153 11.6993 2.07153ZM11.6993 3.71899C11.516 3.71899 11.3667 3.55981 11.3667 3.36426C11.3667 3.16858 11.516 3.00952 11.6993 3.00952C11.8827 3.00952 12.032 3.16858 12.032 3.36426C12.032 3.55981 11.8827 3.71899 11.6993 3.71899Z" fill="#111111"/>
</g>
<defs>
<clipPath id="clip0_1_439">
<rect width="15" height="16" fill="white" transform="translate(-0.000244141)"/>
</clipPath>
</defs>
</svg>
