<svg width="15" height="15" viewBox="0 0 15 15" fill="none" xmlns="http://www.w3.org/2000/svg">
<g clip-path="url(#clip0_1_450)">
<path d="M3.91256 14.8471H-0.000488281V4.73853H3.91256V14.8471ZM0.651646 14.195H3.26042V5.39066H0.651646V14.195Z" fill="#111111"/>
<path d="M14.9995 14.8471H11.0865V9.3037C11.0865 8.76346 10.6485 8.32544 10.1082 8.32544C9.56786 8.32544 9.12996 8.76346 9.12996 9.3037V14.8471H5.21692V4.73853H9.12996V5.39472C9.7206 4.96769 10.431 4.73805 11.1598 4.73853C13.2753 4.73853 14.9995 6.45454 14.9995 8.56595V14.8471ZM11.7386 14.195H14.3473V8.56595C14.3429 6.80933 12.9164 5.38839 11.1598 5.39066C10.3568 5.39066 9.60273 5.72897 9.04028 6.34038L8.47771 6.95585V5.39066H5.86905V14.195H8.47771V9.3037C8.47771 8.40318 9.2077 7.67331 10.1082 7.67331C11.0086 7.67331 11.7386 8.40318 11.7386 9.3037V14.195Z" fill="#111111"/>
<path d="M1.95603 4.08614C0.875433 4.08614 -0.000488281 3.21022 -0.000488281 2.12962C-0.000488281 1.04914 0.875433 0.173096 1.95603 0.173096C3.03663 0.173096 3.91256 1.04914 3.91256 2.12962C3.91029 3.20926 3.03568 4.08399 1.95603 4.08614ZM1.95603 0.825349C1.23571 0.825349 0.651646 1.4093 0.651646 2.12962C0.651646 2.85006 1.23571 3.43401 1.95603 3.43401C2.67635 3.43401 3.26042 2.85006 3.26042 2.12962C3.26042 1.4093 2.67635 0.825349 1.95603 0.825349Z" fill="#111111"/>
</g>
<defs>
<clipPath id="clip0_1_450">
<rect width="15" height="15" fill="white" transform="translate(-0.000488281)"/>
</clipPath>
</defs>
</svg>
