<svg width="26" height="26" viewBox="0 0 26 26" fill="none" xmlns="http://www.w3.org/2000/svg">
<path d="M3.10721 13.0106C4.25373 14.8823 5.76675 16.7727 7.48283 18.4774C9.19891 20.182 11.1017 21.6851 12.9859 22.8242C15.0226 24.0556 16.9765 24.8418 18.7928 25.1603C19.0273 25.2019 19.2651 25.2229 19.5034 25.2232C20.5112 25.2232 21.4464 24.8353 22.1897 24.0969L24.7055 21.5977C25.0418 21.2627 25.2307 20.8089 25.2307 20.3358C25.2307 19.8627 25.0418 19.4089 24.7055 19.074L20.1861 14.5843C19.8489 14.2501 19.3921 14.0625 18.9159 14.0625C18.4396 14.0625 17.9828 14.2501 17.6457 14.5843L15.3322 16.8825C13.1467 15.3169 10.6646 12.8508 9.08853 10.6799L11.402 8.38165C11.7384 8.04672 11.9273 7.59292 11.9273 7.1198C11.9273 6.64669 11.7384 6.19289 11.402 5.85796L6.88261 1.36828C6.54546 1.03411 6.08864 0.846436 5.61238 0.846436C5.13612 0.846436 4.67931 1.03411 4.34216 1.36828L1.82606 3.86717C0.910481 4.77667 0.530334 5.97513 0.755585 7.24176C1.07645 9.04605 1.86765 10.9871 3.10721 13.0106ZM2.91071 4.94436L5.42619 2.44528C5.47592 2.39718 5.54259 2.37027 5.612 2.37027C5.68141 2.37027 5.74807 2.39718 5.79781 2.44528L10.3172 6.93495C10.3656 6.98435 10.3927 7.05059 10.3927 7.11954C10.3927 7.1885 10.3656 7.25473 10.3172 7.30413L7.91435 9.69118C7.68225 9.92066 7.5398 10.2246 7.51246 10.5488C7.48511 10.873 7.57464 11.1963 7.76506 11.4609C9.47697 13.8521 12.1384 16.496 14.5454 18.1967C14.8118 18.3858 15.1372 18.4748 15.4636 18.4476C15.7899 18.4204 16.0959 18.2789 16.3269 18.0484L18.7297 15.6613C18.7794 15.6132 18.8461 15.5863 18.9155 15.5863C18.9849 15.5863 19.0516 15.6132 19.1013 15.6613L23.6207 20.151C23.6692 20.2004 23.6963 20.2666 23.6963 20.3356C23.6963 20.4045 23.6692 20.4708 23.6207 20.5202L21.105 23.0193C20.5456 23.575 19.8382 23.7965 19.0592 23.6598C15.8721 23.1006 11.9496 20.7605 8.56701 17.4003C5.18441 14.0401 2.8289 10.1432 2.26577 6.97671C2.12818 6.20285 2.35103 5.50011 2.91047 4.94445L2.91071 4.94436Z" fill="#111111"/>
</svg>
