<svg width="16" height="14" viewBox="0 0 16 14" fill="none" xmlns="http://www.w3.org/2000/svg">
<path d="M15.9084 1.94926C15.827 1.8678 15.6912 1.84064 15.5825 1.8678L15.0394 2.05792C15.3653 1.67772 15.5825 1.27036 15.7183 0.890161C15.7726 0.754374 15.7455 0.645751 15.664 0.56426C15.5825 0.4828 15.4467 0.455636 15.3381 0.509932C14.5777 0.835834 13.9259 1.10741 13.3828 1.27033C13.3828 1.29749 13.3556 1.27033 13.3284 1.27033C12.8939 1.02592 11.8348 0.482769 11.0744 0.482769C9.14621 0.509932 7.59825 2.13938 7.59825 4.12186V4.23048C4.77389 3.68733 3.22594 2.87261 1.54216 1.10738L1.27065 0.835802L1.1077 1.1617C0.184355 2.92694 0.836127 4.52922 1.89526 5.61551C1.40644 5.53405 1.08054 5.3711 0.781799 5.12669C0.673176 5.04523 0.537389 5.01807 0.401602 5.09953C0.292978 5.15386 0.238651 5.31678 0.265815 5.45256C0.646012 6.72894 1.59652 7.76094 2.62849 8.38555C2.13967 8.38555 1.73231 8.33122 1.32495 8.05965C1.21632 8.00532 1.05337 8.00532 0.94475 8.08681C0.836127 8.1683 0.781799 8.30406 0.836127 8.43985C1.32495 9.82488 2.27546 10.5581 3.79628 10.7482C3.00872 11.2099 1.97675 11.5901 0.374469 11.6173C0.211519 11.6173 0.0757316 11.7259 0.0214356 11.8617C-0.0328918 12.0246 0.0214356 12.1604 0.130059 12.269C1.10773 13.0566 3.28029 13.5183 5.96887 13.5183C10.7486 13.5183 14.6592 9.2546 14.6592 4.01323V3.93177C15.2567 3.63303 15.7455 3.06272 15.9899 2.27516C16.0171 2.16651 15.9899 2.03072 15.9084 1.94926ZM14.279 3.49722L14.116 3.55154V4.01323C14.116 8.95586 10.4498 12.9751 5.96884 12.9751C3.49751 12.9751 1.84093 12.5678 0.94475 12.1333C2.81861 11.9975 3.9049 11.4 4.74679 10.7482L5.42572 10.2594H4.611C3.06305 10.2594 2.11254 9.82488 1.56939 8.79291C2.05821 8.95586 2.5742 8.95586 3.14451 8.9287C3.36175 8.90154 3.57903 8.90154 3.79628 8.90154L3.87774 8.35839C2.84577 8.05965 1.62369 7.1363 1.02621 5.88709C1.56936 6.1315 2.1668 6.18583 2.70995 6.18583H3.55184L2.87293 5.69697C2.30262 5.28961 0.61888 3.85028 1.4336 1.78631C3.17167 3.49722 4.82828 4.28478 7.81556 4.82792L8.14147 4.88225V4.12186C8.14147 2.43812 9.44501 1.05308 11.0745 1.02592C11.6991 0.998753 12.7311 1.56907 13.0298 1.73202C13.1927 1.81348 13.3557 1.84064 13.5186 1.78634C13.926 1.65056 14.4148 1.46044 14.9579 1.24319C14.7135 1.65056 14.3876 2.03075 13.9531 2.38382C13.8445 2.46528 13.8173 2.62823 13.8717 2.76402C13.926 2.8998 14.0889 2.95413 14.2247 2.8998L15.2838 2.54677C15.0937 2.89977 14.795 3.30713 14.279 3.49722Z" fill="#111111"/>
</svg>
