<svg width="22" height="24" viewBox="0 0 22 24" fill="none" xmlns="http://www.w3.org/2000/svg">
<path d="M21.0573 6.17956C21.045 5.5316 21.0332 4.91947 21.0332 4.32728C21.0332 3.86335 20.6572 3.48722 20.1932 3.48722C16.6005 3.48722 13.8652 2.45473 11.5851 0.237863C11.259 -0.0793438 10.7399 -0.0792318 10.4139 0.237863C8.13405 2.45473 5.39914 3.48722 1.8067 3.48722C1.34276 3.48722 0.966639 3.86335 0.966639 4.32728C0.966639 4.91958 0.954991 5.53193 0.942558 6.18001C0.827413 12.2101 0.669706 20.4686 10.7243 23.9537C10.8135 23.9846 10.9065 24.0001 10.9994 24.0001C11.0924 24.0001 11.1855 23.9846 11.2745 23.9537C21.33 20.4685 21.1725 12.2098 21.0573 6.17956ZM10.9996 22.2685C2.37637 19.136 2.50675 12.2738 2.62246 6.21205C2.6294 5.84824 2.63612 5.49564 2.64083 5.14998C6.00555 5.00796 8.69621 3.98835 10.9996 1.98183C13.3031 3.98835 15.9942 5.00807 19.3592 5.14998C19.3639 5.49553 19.3706 5.84791 19.3775 6.21149C19.4931 12.2735 19.6234 19.1359 10.9996 22.2685Z" fill="white"/>
<path d="M13.8924 9.08169L9.8378 13.1361L8.10761 11.4059C7.77954 11.0779 7.24761 11.0779 6.91965 11.4059C6.59158 11.734 6.59158 12.2659 6.91965 12.5939L9.24382 14.9181C9.4078 15.0821 9.62286 15.1641 9.8378 15.1641C10.0527 15.1641 10.2678 15.0821 10.4318 14.9181L15.0802 10.2698C15.4084 9.94169 15.4084 9.40976 15.0803 9.0818C14.7524 8.75373 14.2205 8.75362 13.8924 9.08169Z" fill="white"/>
</svg>
