<svg width="696" height="403" viewBox="0 0 696 403" fill="none" xmlns="http://www.w3.org/2000/svg">
<path d="M677.643 155.961L670.271 175.553L675.498 177.675L682.869 158.083L677.643 155.961Z" fill="#E47249"/>
<path d="M217.154 107.919L212.974 111.808L226.483 127.478L230.663 123.589L217.154 107.919Z" fill="white"/>
<path d="M279.09 178.053L262.883 190.664L266.247 195.33L282.454 182.719L279.09 178.053Z" fill="#E47249"/>
<path d="M466.539 33.3389L462.693 37.5841L477.441 52L481.286 47.7548L466.539 33.3389Z" fill="#E47249"/>
<path d="M359.308 38.0267L349.215 56.2638L354.08 59.169L364.173 40.9319L359.308 38.0267Z" fill="white"/>
<path d="M505.862 193.984L501.117 197.094L511.923 214.884L516.669 211.773L505.862 193.984Z" fill="white"/>
<path d="M285.818 280.609L280.799 283.214L289.848 302.032L294.868 299.427L285.818 280.609Z" fill="white"/>
<path d="M212.377 231.096L206.562 251.246L211.937 252.919L217.751 232.77L212.377 231.096Z" fill="#E47249"/>
<path d="M563.647 293.884L546.829 305.6L549.954 310.441L566.772 298.725L563.647 293.884Z" fill="#E47249"/>
<path d="M566.166 -5.38586e-05L556.074 18.2366L560.939 21.1417L571.031 2.90509L566.166 -5.38586e-05Z" fill="white"/>
<path d="M5.22631 149.196L0 151.318L7.37171 170.91L12.598 168.787L5.22631 149.196Z" fill="white"/>
<path d="M547.752 124.992L544.387 129.658L560.594 142.269L563.958 137.603L547.752 124.992Z" fill="white"/>
<path d="M92.5034 39.0435L77.7561 53.4594L81.6016 57.7045L96.3489 43.2886L92.5034 39.0435Z" fill="#E47249"/>
<path d="M255.847 21.8765L250.982 24.7817L261.074 43.0188L265.939 40.1136L255.847 21.8765Z" fill="#E47249"/>
<path d="M57.4238 250.853L46.6172 268.642L51.3627 271.753L62.1692 253.963L57.4238 250.853Z" fill="white"/>
<path d="M9.55833 299.584L6.4328 304.428L23.26 316.144L26.3855 311.3L9.55833 299.584Z" fill="#E47249"/>
<path d="M658.761 67.2769L653.896 70.182L663.988 88.4187L668.853 85.5135L658.761 67.2769Z" fill="#E47249"/>
<path d="M447.932 116.976L434.423 132.646L438.603 136.534L452.112 120.865L447.932 116.976Z" fill="#E47249"/>
<path d="M329.335 293.597L320.285 312.415L325.305 315.02L334.355 296.202L329.335 293.597Z" fill="white"/>
<path d="M402.779 244.086L397.405 245.76L403.219 265.909L408.594 264.236L402.779 244.086Z" fill="#E47249"/>
<path d="M404.588 255.585L385.463 240.482C385.042 240.151 384.56 239.914 384.047 239.786C383.533 239.659 383 239.643 382.481 239.742C381.962 239.84 381.468 240.049 381.031 240.357C380.593 240.664 380.223 241.063 379.942 241.527C379.45 242.401 379.287 243.434 379.486 244.426C379.685 245.417 380.231 246.297 381.019 246.894L385.12 250.132L367.725 246.098C365.799 245.614 363.136 246.301 362.756 248.582C362.555 249.45 362.643 250.363 363.005 251.172C363.368 251.981 363.983 252.639 364.752 253.038C364.743 253.056 364.736 253.075 364.731 253.094C364.73 253.109 364.73 253.124 364.731 253.139L361.76 252.393C361.209 252.256 360.636 252.247 360.082 252.369C359.528 252.49 359.008 252.738 358.558 253.095C358.108 253.452 357.74 253.909 357.482 254.433C357.224 254.956 357.081 255.533 357.064 256.12C357.056 257.047 357.354 257.948 357.909 258.673C358.464 259.398 359.241 259.904 360.111 260.105L361.374 260.422C361.382 260.464 361.397 260.504 361.419 260.541C360.517 260.533 359.641 260.858 358.949 261.459C358.257 262.06 357.793 262.897 357.64 263.82C357.501 264.836 357.735 265.868 358.297 266.712C358.859 267.555 359.706 268.148 360.67 268.371L363.811 269.16C363.759 269.181 363.713 269.215 363.676 269.259C363.64 269.302 363.614 269.354 363.6 269.41C363.588 269.478 363.594 269.548 363.619 269.612C362.814 269.836 362.102 270.329 361.592 271.015C361.083 271.701 360.804 272.541 360.799 273.408C360.812 274.317 361.121 275.196 361.674 275.901C362.228 276.606 362.994 277.097 363.849 277.293L390.345 283.943C394.051 284.873 397.941 284.632 401.515 283.25C405.089 281.869 408.185 279.411 410.405 276.191C412.32 273.414 413.117 269.971 412.626 266.594C412.136 263.216 410.397 260.171 407.779 258.104L404.588 255.585Z" fill="#E98862"/>
<g opacity="0.2">
<path d="M381.951 257.12C381.929 257.213 381.873 257.292 381.795 257.342C381.717 257.392 381.624 257.408 381.534 257.388L364.995 253.526C364.95 253.515 364.907 253.496 364.87 253.468C364.832 253.44 364.8 253.405 364.775 253.365C364.751 253.324 364.734 253.279 364.726 253.232C364.718 253.185 364.719 253.137 364.73 253.09C364.74 253.043 364.759 252.999 364.785 252.96C364.812 252.921 364.845 252.888 364.884 252.862C364.923 252.836 364.967 252.819 365.012 252.811C365.058 252.803 365.104 252.804 365.149 252.815L381.688 256.676C381.733 256.687 381.776 256.707 381.813 256.734C381.851 256.762 381.883 256.797 381.908 256.838C381.932 256.878 381.949 256.924 381.957 256.971C381.965 257.018 381.963 257.067 381.953 257.114L381.951 257.12Z" fill="#0C0C0C"/>
</g>
<g opacity="0.2">
<path d="M380.514 264.745C380.492 264.838 380.436 264.918 380.357 264.968C380.278 265.018 380.183 265.034 380.093 265.012L361.636 260.706C361.59 260.695 361.548 260.676 361.51 260.648C361.472 260.62 361.44 260.585 361.416 260.545C361.391 260.504 361.374 260.459 361.366 260.411C361.359 260.364 361.36 260.315 361.37 260.269C361.394 260.176 361.45 260.096 361.528 260.044C361.607 259.993 361.701 259.975 361.791 259.993L380.249 264.3C380.294 264.31 380.337 264.33 380.375 264.357C380.412 264.385 380.445 264.42 380.469 264.461C380.494 264.501 380.511 264.547 380.518 264.594C380.526 264.641 380.525 264.69 380.514 264.737V264.745Z" fill="#0C0C0C"/>
</g>
<g opacity="0.2">
<path d="M379.004 273.012C378.982 273.104 378.926 273.184 378.848 273.234C378.77 273.284 378.676 273.3 378.587 273.279L363.863 269.845C363.773 269.823 363.694 269.766 363.644 269.684C363.594 269.602 363.577 269.503 363.598 269.409C363.618 269.315 363.674 269.233 363.752 269.181C363.831 269.129 363.926 269.112 364.017 269.133L378.74 272.568C378.786 272.579 378.828 272.598 378.866 272.626C378.904 272.653 378.936 272.689 378.961 272.729C378.986 272.77 379.002 272.815 379.01 272.863C379.018 272.91 379.017 272.959 379.006 273.005L379.004 273.012Z" fill="#0C0C0C"/>
</g>
<path d="M313.788 151.706L324.466 129.351C324.701 128.86 325.031 128.425 325.436 128.073C325.842 127.722 326.313 127.462 326.82 127.311C327.328 127.159 327.86 127.119 328.383 127.193C328.906 127.266 329.408 127.453 329.858 127.739C330.674 128.295 331.262 129.145 331.508 130.125C331.754 131.105 331.641 132.146 331.191 133.044L328.901 137.838L342.76 126.2C344.28 124.877 346.958 124.264 348.274 126.133C348.825 126.817 349.137 127.676 349.158 128.568C349.179 129.46 348.909 130.334 348.391 131.046C348.406 131.058 348.421 131.071 348.433 131.086C348.441 131.099 348.448 131.112 348.454 131.126L350.797 129.086C351.231 128.708 351.741 128.436 352.289 128.289C352.838 128.143 353.41 128.125 353.966 128.237C354.522 128.349 355.046 128.589 355.501 128.939C355.957 129.288 356.331 129.739 356.597 130.258C357.001 131.084 357.119 132.029 356.932 132.935C356.745 133.84 356.265 134.652 355.571 135.234L354.574 136.102C354.585 136.143 354.588 136.187 354.584 136.229C355.389 135.806 356.312 135.693 357.189 135.911C358.066 136.13 358.84 136.665 359.372 137.422C359.931 138.268 360.161 139.302 360.018 140.317C359.875 141.332 359.369 142.254 358.601 142.898L356.124 145.052C356.18 145.047 356.236 145.056 356.287 145.078C356.339 145.1 356.385 145.135 356.421 145.179C356.462 145.234 356.486 145.3 356.491 145.369C357.309 145.198 358.158 145.311 358.907 145.691C359.657 146.07 360.266 146.695 360.64 147.469C361.018 148.29 361.117 149.219 360.923 150.106C360.729 150.994 360.252 151.787 359.569 152.357L338.674 170.54C335.751 173.084 332.163 174.662 328.37 175.074C324.578 175.486 320.753 174.711 317.387 172.85C314.485 171.246 312.3 168.529 311.295 165.277C310.29 162.026 310.545 158.495 312.006 155.436L313.788 151.706Z" fill="#E98862"/>
<g opacity="0.2">
<path d="M334.726 142.636C334.785 142.71 334.87 142.756 334.962 142.765C335.054 142.774 335.145 142.744 335.217 142.684L348.385 131.595C348.457 131.534 348.503 131.446 348.513 131.35C348.523 131.254 348.495 131.158 348.437 131.083C348.378 131.007 348.293 130.96 348.201 130.95C348.108 130.94 348.015 130.968 347.943 131.029L334.775 142.118C334.703 142.178 334.657 142.266 334.648 142.361C334.638 142.457 334.665 142.553 334.723 142.628L334.726 142.636Z" fill="#0C0C0C"/>
</g>
<g opacity="0.2">
<path d="M339.273 148.805C339.332 148.878 339.417 148.924 339.509 148.933C339.601 148.942 339.693 148.913 339.764 148.852L354.46 136.477C354.532 136.416 354.577 136.329 354.587 136.233C354.596 136.137 354.569 136.042 354.511 135.967C354.451 135.895 354.367 135.85 354.276 135.84C354.185 135.83 354.094 135.856 354.02 135.913L339.319 148.285C339.248 148.346 339.202 148.434 339.192 148.529C339.183 148.625 339.209 148.721 339.267 148.796L339.273 148.805Z" fill="#0C0C0C"/>
</g>
<g opacity="0.2">
<path d="M344.161 155.514C344.22 155.588 344.305 155.634 344.397 155.643C344.489 155.652 344.581 155.622 344.652 155.562L356.375 145.691C356.447 145.63 356.493 145.542 356.503 145.446C356.513 145.349 356.485 145.253 356.426 145.178C356.368 145.103 356.283 145.055 356.19 145.045C356.098 145.035 356.005 145.064 355.933 145.125L344.207 154.996C344.136 155.056 344.09 155.144 344.08 155.239C344.071 155.335 344.098 155.431 344.155 155.506L344.161 155.514Z" fill="#0C0C0C"/>
</g>
<path d="M74.1405 132.539C74.1405 132.539 72.6345 156.012 67.5513 164.526C52.9155 189.044 48.6754 216.624 63.3316 231.035C77.9878 245.445 171.469 245.645 178.552 212.502C184.514 184.598 171.719 181.598 168.606 158.582C167.197 148.167 163.322 126.327 163.322 126.327" fill="#0A0A0A"/>
<path d="M154.358 207.642C154.196 207.62 152.406 238.487 117.888 235.796C93.9921 233.935 85.4719 207.597 84.9248 207.597C87.5011 207.028 91.8394 206.201 92.9834 205.566C96.7465 203.466 101.4 201.281 102.615 193.69C103.317 189.318 102.128 166.932 102.493 162.504L139.173 171.011C138.661 180.36 135.074 202.033 147.646 205.869C149.738 206.505 151.992 207.089 154.358 207.642Z" fill="#E98862"/>
<path opacity="0.5" d="M139.687 197.013C139.113 195.089 138.743 193.106 138.584 191.099C138.181 186.519 138.262 181.907 138.824 177.345C131.369 176.299 124.346 173.103 118.553 168.118C117.872 170.731 114.126 182.149 115.163 184.632C117.122 189.326 126.334 197.013 139.687 197.013Z" fill="#0C0C0C"/>
<path d="M134.944 187.397C120.483 188.854 101.772 182.842 97.8955 162.835L94.3982 144.784C90.5221 124.778 97.495 106.445 115.627 102.654C133.76 98.8653 150.456 112.247 154.332 132.253L155.88 140.245C157.367 147.921 160.746 184.803 134.944 187.397Z" fill="#E98862"/>
<path opacity="0.1" d="M125.752 161.181C128.132 160.886 129.892 159.177 129.684 157.363C129.475 155.55 127.377 154.319 124.997 154.614C122.618 154.909 120.857 156.618 121.065 158.431C121.274 160.245 123.372 161.476 125.752 161.181Z" fill="#0C0C0C"/>
<path opacity="0.1" d="M150.899 153.931C151.109 155.742 153.21 156.971 155.59 156.68C156.001 156.628 156.406 156.533 156.799 156.395C156.909 154.236 156.916 152.159 156.855 150.236C156.194 150.064 155.508 150.023 154.832 150.113C152.453 150.404 150.693 152.113 150.899 153.931Z" fill="#0C0C0C"/>
<path opacity="0.5" d="M140.383 159.528C140.395 159.527 140.407 159.525 140.418 159.522C141.153 159.363 141.879 159.162 142.593 158.919C143.657 158.549 145.048 157.941 144.857 156.941C144.637 155.801 139.246 144.131 138.634 142.805C138.609 142.746 138.572 142.692 138.527 142.647C138.481 142.602 138.427 142.567 138.369 142.544C138.31 142.521 138.247 142.511 138.184 142.514C138.122 142.517 138.06 142.533 138.003 142.561C137.947 142.59 137.896 142.629 137.855 142.678C137.813 142.727 137.782 142.785 137.762 142.847C137.742 142.909 137.735 142.974 137.74 143.039C137.745 143.104 137.763 143.167 137.792 143.225C140.091 148.195 143.793 156.367 143.942 157.134C143.825 157.492 142.059 158.191 140.236 158.572C140.175 158.583 140.118 158.605 140.065 158.638C140.013 158.672 139.968 158.716 139.932 158.767C139.896 158.819 139.871 158.877 139.856 158.939C139.842 159.001 139.84 159.065 139.85 159.128C139.86 159.191 139.881 159.251 139.913 159.305C139.945 159.359 139.988 159.406 140.037 159.444C140.087 159.481 140.143 159.508 140.203 159.522C140.262 159.537 140.324 159.539 140.385 159.529L140.383 159.528Z" fill="#0C0C0C"/>
<path d="M79.93 151.265L96.1861 147.966C108.466 142.632 111.95 120.4 111.95 120.4C111.95 120.4 127.105 135.394 163.325 126.327C163.325 126.327 155.457 73.8021 101.975 89.7492C84.7305 94.8897 72.5153 113.15 74.3319 137.335C75.605 154.279 79.93 151.265 79.93 151.265Z" fill="#0A0A0A"/>
<path d="M100.202 168.695C94.6921 169.847 89.0386 164.657 87.9276 158.931C86.8165 153.205 90.6743 149.116 96.1847 147.964L99.7675 151.206L104.939 167.703L100.202 168.695Z" fill="#E98862"/>
<path d="M142.54 133.498C143.919 132.486 145.531 131.87 147.213 131.715C148.058 131.63 148.911 131.68 149.742 131.86C150.58 132.038 151.393 132.324 152.162 132.711L152.186 132.723C152.271 132.762 152.368 132.765 152.455 132.731C152.543 132.697 152.614 132.629 152.653 132.542C152.693 132.454 152.698 132.354 152.667 132.262C152.637 132.171 152.573 132.095 152.49 132.052C151.674 131.605 150.808 131.266 149.911 131.044C149.008 130.816 148.077 130.73 147.15 130.789C145.271 130.897 143.454 131.526 141.889 132.611C141.831 132.652 141.781 132.705 141.742 132.766C141.703 132.827 141.677 132.895 141.663 132.967C141.65 133.039 141.651 133.113 141.665 133.185C141.679 133.257 141.707 133.325 141.747 133.385C141.786 133.446 141.837 133.497 141.896 133.538C141.955 133.578 142.021 133.605 142.09 133.619C142.16 133.632 142.231 133.632 142.3 133.617C142.369 133.602 142.434 133.573 142.492 133.531L142.505 133.522L142.54 133.498Z" fill="#0C0C0C"/>
<path d="M127.69 135.63C125.844 135.249 123.934 135.389 122.158 136.036C121.28 136.35 120.452 136.8 119.703 137.369C118.956 137.931 118.281 138.589 117.692 139.326C117.633 139.399 117.603 139.494 117.609 139.589C117.615 139.685 117.657 139.775 117.725 139.839C117.793 139.904 117.883 139.938 117.975 139.936C118.067 139.933 118.155 139.893 118.22 139.825L118.239 139.805C118.806 139.141 119.452 138.553 120.161 138.056C120.862 137.559 121.631 137.175 122.443 136.917C124.054 136.391 125.771 136.319 127.418 136.706L127.458 136.717C127.596 136.752 127.742 136.728 127.864 136.651C127.985 136.574 128.072 136.45 128.106 136.307C128.139 136.163 128.116 136.011 128.042 135.885C127.968 135.759 127.849 135.669 127.711 135.634L127.69 135.63Z" fill="#0C0C0C"/>
<path d="M96.1973 147.688C107.125 143.462 110.751 135.623 111.868 129.79C112.59 125.899 112.523 121.895 111.669 118.033L111.331 118.13C112.172 121.941 112.237 125.893 111.522 129.732C110.419 135.47 106.845 143.184 96.0746 147.348L96.1973 147.688Z" fill="#0C0C0C"/>
<path d="M182.47 211.314L286.229 247.343L255.765 261.41L307.503 151.151L349.787 171.622L301.783 283.687C299.356 289.354 295.046 293.925 289.642 296.563C284.238 299.202 278.101 299.733 272.351 298.058L271.319 297.754L165.99 267.035L182.47 211.314Z" fill="#E47249"/>
<path d="M117.244 228.079C93.3313 226.908 92.3248 205.824 92.3248 205.824C92.3248 205.824 80.4764 206.62 72.6002 207.727C59.7053 209.539 51.1984 214.081 44.4283 221.113C38.131 227.656 34.297 234.734 38.3541 279.923C41.2916 312.644 39.2245 384.614 39.2245 384.614H184.944C184.944 384.614 195.12 280.636 196.326 265.91C198.628 237.792 205.133 231.585 191.954 217.101C182.398 206.597 157.725 205.824 147.794 205.826C147.632 205.826 149.81 229.674 117.244 228.079Z" fill="#E47249"/>
<path d="M145.231 163.471C140.532 165.953 135.171 166.738 129.995 165.702C129.816 165.667 129.631 165.685 129.462 165.756C129.292 165.826 129.146 165.945 129.039 166.098C128.932 166.252 128.87 166.434 128.859 166.623C128.848 166.812 128.889 167 128.977 167.166C130.521 169.99 134.181 174.817 140.46 172.85C144.514 171.579 146.047 167.246 146.615 164.566C146.654 164.38 146.641 164.187 146.578 164.009C146.514 163.831 146.404 163.675 146.258 163.56C146.113 163.446 145.939 163.376 145.757 163.36C145.575 163.344 145.392 163.383 145.231 163.471Z" fill="#E47249"/>
<path d="M145.525 141.763C146.779 141.763 147.795 140.707 147.795 139.405C147.795 138.102 146.779 137.046 145.525 137.046C144.271 137.046 143.254 138.102 143.254 139.405C143.254 140.707 144.271 141.763 145.525 141.763Z" fill="#0C0C0C"/>
<path d="M123.708 145.731C124.962 145.731 125.978 144.675 125.978 143.372C125.978 142.07 124.962 141.014 123.708 141.014C122.454 141.014 121.437 142.07 121.437 143.372C121.437 144.675 122.454 145.731 123.708 145.731Z" fill="#0C0C0C"/>
<path d="M196.002 276.155C195.988 276.156 195.973 276.156 195.958 276.155C195.866 276.143 195.782 276.093 195.725 276.017C195.668 275.941 195.642 275.844 195.654 275.749L197.91 256.747C197.915 256.699 197.929 256.653 197.952 256.611C197.974 256.569 198.004 256.532 198.041 256.503C198.077 256.473 198.119 256.452 198.164 256.439C198.208 256.427 198.255 256.424 198.301 256.431C198.347 256.437 198.391 256.452 198.431 256.476C198.471 256.499 198.506 256.531 198.535 256.568C198.563 256.606 198.584 256.649 198.596 256.696C198.608 256.742 198.612 256.79 198.606 256.837L196.35 275.838C196.338 275.926 196.297 276.006 196.233 276.064C196.169 276.122 196.087 276.154 196.002 276.155Z" fill="#0C0C0C"/>
<path d="M564.854 129.535C564.854 129.535 556.162 119.395 557.17 100.404C557.95 85.7 568.869 97.5915 568.869 97.5915C568.869 97.5915 569.53 87.0094 576.561 89.5291C583.592 92.0487 585.567 103.717 585.567 103.717" fill="#0C0C0C"/>
<path d="M613.705 98.474C613.705 98.474 648.814 109.898 626.155 157.713L622.938 157.276L616.408 156.39" fill="#0C0C0C"/>
<path d="M563.76 207.565C563.922 207.543 565.706 238.307 600.109 235.625C623.926 233.772 632.418 207.522 632.964 207.522C630.396 206.955 626.072 206.13 624.931 205.498C621.181 203.405 616.541 201.227 615.331 193.661C614.635 189.3 615.817 166.993 615.453 162.58L578.894 171.056C579.405 180.374 582.98 201.976 570.449 205.799C568.364 206.431 566.116 207.013 563.76 207.565Z" fill="#E98862"/>
<path opacity="0.52" d="M578.382 196.971C578.954 195.054 579.323 193.077 579.481 191.077C579.884 186.511 579.804 181.914 579.243 177.367C586.673 176.326 593.674 173.14 599.448 168.172C600.127 170.776 603.86 182.156 602.826 184.631C600.873 189.31 591.691 196.971 578.382 196.971Z" fill="#0C0C0C"/>
<path d="M582.766 186.553C597.163 188.164 615.873 182.385 619.946 162.49L623.619 144.539C627.688 124.647 620.932 106.294 602.899 102.312C584.867 98.3304 568.089 111.482 564.018 131.377L562.391 139.325C561.879 142.063 561.546 144.835 561.396 147.621C560.948 154.98 560.294 166.176 563.564 174.517C566.649 182.393 573.567 185.524 582.766 186.553Z" fill="#E98862"/>
<path d="M571.329 140.72C572.583 140.72 573.6 139.664 573.6 138.361C573.6 137.059 572.583 136.003 571.329 136.003C570.075 136.003 569.059 137.059 569.059 138.361C569.059 139.664 570.075 140.72 571.329 140.72Z" fill="#0C0C0C"/>
<path d="M592.894 143.079C594.148 143.079 595.164 142.023 595.164 140.72C595.164 139.417 594.148 138.361 592.894 138.361C591.64 138.361 590.623 139.417 590.623 140.72C590.623 142.023 591.64 143.079 592.894 143.079Z" fill="#0C0C0C"/>
<path d="M617.585 168.304C623.065 169.515 628.754 164.405 629.919 158.712C631.084 153.019 627.284 148.9 621.804 147.689L618.199 150.88L612.874 167.264L617.585 168.304Z" fill="#E98862"/>
<path d="M613.883 158.002C613.883 158.002 617.443 129.395 609.539 125.946C604.278 123.649 589.419 128.979 577.563 123.985C572.376 121.799 566.992 122.127 565.963 124.665C565.556 125.67 565.086 109.921 575.722 100.245C584.189 92.5399 606.681 94.5269 616.117 99.5822C642.245 113.579 622.702 149.167 622.702 149.167L619.599 158.64L613.883 158.002Z" fill="#0C0C0C"/>
<g opacity="0.52">
<path d="M577.236 160.049L577.2 160.043C575.433 159.658 572.511 158.804 572.787 157.434C573.018 156.296 578.496 144.669 579.121 143.347C579.174 143.233 579.269 143.146 579.385 143.105C579.5 143.064 579.626 143.072 579.736 143.128C579.845 143.184 579.929 143.283 579.968 143.402C580.008 143.522 580 143.654 579.946 143.767C577.516 148.916 573.844 156.857 573.687 157.63C573.795 157.994 575.559 158.709 577.388 159.107C577.503 159.134 577.604 159.206 577.669 159.307C577.735 159.409 577.761 159.532 577.741 159.653C577.722 159.774 577.659 159.882 577.564 159.956C577.47 160.029 577.353 160.063 577.236 160.049Z" fill="#0C0C0C"/>
</g>
<path d="M576.828 130.983C575.092 130.073 573.152 129.666 571.212 129.805C570.259 129.867 569.32 130.078 568.427 130.429C567.543 130.773 566.705 131.231 565.932 131.793C565.802 131.879 565.711 132.014 565.676 132.169C565.642 132.324 565.668 132.487 565.748 132.623C565.828 132.758 565.957 132.855 566.106 132.894C566.254 132.932 566.412 132.907 566.543 132.826L566.584 132.802C567.293 132.345 568.054 131.983 568.85 131.723C569.635 131.463 570.453 131.328 571.277 131.322C572.904 131.297 574.51 131.72 575.93 132.547L575.983 132.58C576.083 132.641 576.193 132.682 576.307 132.699C576.422 132.716 576.539 132.709 576.651 132.679C576.763 132.649 576.868 132.597 576.96 132.524C577.053 132.452 577.131 132.361 577.189 132.258C577.248 132.154 577.286 132.039 577.302 131.92C577.317 131.801 577.31 131.68 577.281 131.564C577.251 131.447 577.2 131.338 577.129 131.243C577.059 131.147 576.971 131.067 576.871 131.007L576.828 130.983Z" fill="#0C0C0C"/>
<path d="M589.811 134.628C591.388 134.208 593.044 134.228 594.611 134.686C595.406 134.912 596.162 135.261 596.856 135.721C597.561 136.185 598.207 136.738 598.779 137.369L598.811 137.402C598.919 137.511 599.063 137.572 599.214 137.573C599.365 137.574 599.51 137.514 599.619 137.407C599.729 137.299 599.794 137.152 599.801 136.996C599.809 136.839 599.758 136.686 599.659 136.568C599.051 135.819 598.354 135.152 597.585 134.584C596.809 134.006 595.954 133.552 595.048 133.237C593.208 132.585 591.232 132.459 589.329 132.873C589.216 132.899 589.11 132.947 589.015 133.015C588.921 133.084 588.84 133.171 588.777 133.271C588.652 133.475 588.609 133.722 588.658 133.958C588.708 134.194 588.846 134.4 589.042 134.531C589.238 134.662 589.475 134.706 589.703 134.655L589.748 134.643L589.811 134.628Z" fill="#0C0C0C"/>
<path d="M574.458 164.462C579.572 165.789 584.966 165.308 589.787 163.095C589.954 163.02 590.139 162.995 590.319 163.024C590.499 163.053 590.667 163.135 590.804 163.26C590.941 163.385 591.041 163.547 591.093 163.729C591.144 163.911 591.145 164.104 591.095 164.286C590.197 167.398 587.672 172.957 581.128 172.496C576.903 172.2 574.476 168.333 573.342 165.853C573.264 165.681 573.234 165.489 573.257 165.301C573.28 165.112 573.355 164.934 573.472 164.788C573.589 164.641 573.745 164.533 573.919 164.475C574.094 164.418 574.281 164.413 574.458 164.462Z" fill="#E47249"/>
<path d="M594.75 104.32C597.194 98.3616 596.016 92.1329 592.119 90.4083C588.221 88.6837 583.081 92.1162 580.638 98.075C578.194 104.034 579.372 110.262 583.269 111.987C587.167 113.712 592.307 110.279 594.75 104.32Z" fill="#0C0C0C"/>
<path d="M600.644 228.079C624.556 226.908 625.563 205.824 625.563 205.824C625.563 205.824 637.411 206.62 645.288 207.727C658.183 209.539 666.69 214.081 673.459 221.113C679.757 227.656 683.591 234.734 679.534 279.923C676.596 312.644 678.664 384.614 678.664 384.614H532.944C532.944 384.614 522.769 280.639 521.562 265.91C519.259 237.792 512.756 231.585 525.933 217.101C535.49 206.597 560.163 205.824 570.094 205.826C570.255 205.826 568.08 229.674 600.644 228.079Z" fill="#E47249"/>
<path d="M521.218 223.613L483.542 306.585L409.244 248.544L379.734 289.309L478.116 366.163C478.997 366.843 479.916 367.466 480.87 368.029C483.681 369.665 486.775 370.71 489.975 371.104C493.174 371.498 496.417 371.233 499.519 370.325C502.62 369.417 505.519 367.883 508.05 365.812C510.581 363.74 512.694 361.17 514.269 358.25L514.695 357.461L572.174 250.883L521.218 223.613Z" fill="#E47249"/>
<path d="M684.255 385.343H20.6538C20.4677 385.343 20.2893 385.266 20.1578 385.129C20.0262 384.993 19.9523 384.807 19.9523 384.614C19.9523 384.421 20.0262 384.235 20.1578 384.099C20.2893 383.962 20.4677 383.885 20.6538 383.885H684.255C684.441 383.885 684.619 383.962 684.751 384.099C684.883 384.235 684.956 384.421 684.956 384.614C684.956 384.807 684.883 384.993 684.751 385.129C684.619 385.266 684.441 385.343 684.255 385.343Z" fill="#292A2E"/>
<path d="M539.917 276.235H184.564V402.415H539.917V276.235Z" fill="#E47249"/>
<path d="M540.267 402.78H184.214V275.87H540.267V402.78ZM184.915 402.051H539.565V276.599H184.915V402.051Z" fill="#0C0C0C"/>
<path d="M221.936 360L239.072 320.8H252.064L269.2 360H255.536L242.88 327.072H248.032L235.376 360H221.936ZM232.128 353.168L235.488 343.648H253.52L256.88 353.168H232.128ZM291.357 360.56C288.557 360.56 286.299 360 284.581 358.88C282.864 357.76 281.613 356.024 280.829 353.672C280.083 351.32 279.709 348.315 279.709 344.656C279.709 341.035 280.12 338.067 280.941 335.752C281.763 333.4 283.032 331.664 284.749 330.544C286.504 329.387 288.707 328.808 291.357 328.808C294.045 328.808 296.509 329.443 298.749 330.712C300.989 331.981 302.781 333.811 304.125 336.2C305.469 338.552 306.141 341.371 306.141 344.656C306.141 347.941 305.469 350.779 304.125 353.168C302.781 355.52 300.989 357.349 298.749 358.656C296.509 359.925 294.045 360.56 291.357 360.56ZM270.917 360V318.448H283.573V333.456L283.013 344.656L282.957 355.856V360H270.917ZM288.333 350.704C289.267 350.704 290.107 350.48 290.853 350.032C291.6 349.584 292.197 348.912 292.645 348.016C293.093 347.083 293.317 345.963 293.317 344.656C293.317 343.312 293.093 342.211 292.645 341.352C292.197 340.456 291.6 339.784 290.853 339.336C290.107 338.888 289.267 338.664 288.333 338.664C287.4 338.664 286.56 338.888 285.813 339.336C285.067 339.784 284.469 340.456 284.021 341.352C283.573 342.211 283.349 343.312 283.349 344.656C283.349 345.963 283.573 347.083 284.021 348.016C284.469 348.912 285.067 349.584 285.813 350.032C286.56 350.48 287.4 350.704 288.333 350.704ZM326.312 360.56C322.84 360.56 319.76 359.888 317.072 358.544C314.421 357.163 312.331 355.277 310.8 352.888C309.269 350.499 308.504 347.755 308.504 344.656C308.504 341.557 309.269 338.813 310.8 336.424C312.331 334.035 314.421 332.168 317.072 330.824C319.76 329.48 322.84 328.808 326.312 328.808C329.784 328.808 332.864 329.48 335.552 330.824C338.24 332.168 340.331 334.035 341.824 336.424C343.355 338.813 344.12 341.557 344.12 344.656C344.12 347.755 343.355 350.499 341.824 352.888C340.331 355.277 338.24 357.163 335.552 358.544C332.864 359.888 329.784 360.56 326.312 360.56ZM326.312 350.704C327.245 350.704 328.085 350.48 328.832 350.032C329.579 349.584 330.176 348.912 330.624 348.016C331.072 347.083 331.296 345.963 331.296 344.656C331.296 343.312 331.072 342.211 330.624 341.352C330.176 340.456 329.579 339.784 328.832 339.336C328.085 338.888 327.245 338.664 326.312 338.664C325.379 338.664 324.539 338.888 323.792 339.336C323.045 339.784 322.448 340.456 322 341.352C321.552 342.211 321.328 343.312 321.328 344.656C321.328 345.963 321.552 347.083 322 348.016C322.448 348.912 323.045 349.584 323.792 350.032C324.539 350.48 325.379 350.704 326.312 350.704ZM360.849 360.56C358.423 360.56 356.22 360.075 354.241 359.104C352.3 358.096 350.769 356.547 349.649 354.456C348.529 352.328 347.969 349.603 347.969 346.28V329.368H360.625V344.096C360.625 346.261 360.98 347.773 361.689 348.632C362.399 349.491 363.369 349.92 364.601 349.92C365.348 349.92 366.039 349.733 366.673 349.36C367.345 348.949 367.887 348.296 368.297 347.4C368.708 346.467 368.913 345.253 368.913 343.76V329.368H381.569V360H369.529V351.152L371.937 353.56C370.855 355.949 369.305 357.723 367.289 358.88C365.311 360 363.164 360.56 360.849 360.56ZM401.967 360.56C397.748 360.56 394.463 359.552 392.111 357.536C389.759 355.483 388.583 352.347 388.583 348.128V322.48H401.239V348.016C401.239 348.949 401.481 349.677 401.967 350.2C402.489 350.723 403.124 350.984 403.871 350.984C404.953 350.984 405.905 350.704 406.727 350.144L409.751 358.936C408.78 359.496 407.604 359.907 406.223 360.168C404.879 360.429 403.46 360.56 401.967 360.56ZM384.383 340.288V331.048H407.511V340.288H384.383ZM448.882 360.896C442.871 360.896 438.186 359.272 434.826 356.024C431.466 352.776 429.786 348.221 429.786 342.36V320.8H443.002V341.968C443.002 344.955 443.543 347.083 444.626 348.352C445.708 349.584 447.164 350.2 448.994 350.2C450.86 350.2 452.316 349.584 453.362 348.352C454.444 347.083 454.986 344.955 454.986 341.968V320.8H467.978V342.36C467.978 348.221 466.298 352.776 462.938 356.024C459.578 359.272 454.892 360.896 448.882 360.896ZM485.628 360.56C483.014 360.56 480.438 360.28 477.9 359.72C475.361 359.16 473.308 358.432 471.74 357.536L475.212 349.192C476.668 350.051 478.348 350.723 480.252 351.208C482.193 351.693 484.078 351.936 485.908 351.936C487.438 351.936 488.465 351.805 488.988 351.544C489.548 351.283 489.828 350.928 489.828 350.48C489.828 350.032 489.51 349.715 488.876 349.528C488.241 349.304 487.401 349.136 486.356 349.024C485.31 348.912 484.153 348.781 482.884 348.632C481.652 348.445 480.401 348.184 479.132 347.848C477.862 347.512 476.705 347.008 475.66 346.336C474.614 345.664 473.774 344.768 473.14 343.648C472.505 342.491 472.188 341.035 472.188 339.28C472.188 337.339 472.766 335.584 473.924 334.016C475.118 332.448 476.873 331.197 479.188 330.264C481.54 329.293 484.433 328.808 487.868 328.808C490.108 328.808 492.348 329.013 494.588 329.424C496.828 329.835 498.75 330.469 500.356 331.328L496.884 339.672C495.316 338.813 493.766 338.235 492.236 337.936C490.742 337.6 489.342 337.432 488.036 337.432C486.43 337.432 485.329 337.581 484.732 337.88C484.172 338.179 483.892 338.515 483.892 338.888C483.892 339.336 484.209 339.672 484.844 339.896C485.478 340.12 486.318 340.288 487.364 340.4C488.409 340.512 489.548 340.661 490.78 340.848C492.049 340.997 493.3 341.259 494.532 341.632C495.801 341.968 496.958 342.472 498.004 343.144C499.049 343.816 499.889 344.731 500.524 345.888C501.158 347.008 501.476 348.445 501.476 350.2C501.476 352.029 500.897 353.747 499.74 355.352C498.582 356.92 496.828 358.189 494.476 359.16C492.124 360.093 489.174 360.56 485.628 360.56Z" fill="white"/>
<path d="M167.018 314.797L188.953 304.621C189.435 304.397 189.957 304.28 190.485 304.278C191.012 304.275 191.535 304.386 192.019 304.605C192.503 304.824 192.938 305.145 193.296 305.548C193.655 305.95 193.928 306.426 194.099 306.945C194.387 307.913 194.319 308.957 193.908 309.875C193.497 310.793 192.772 311.52 191.874 311.915L187.17 314.101L204.994 314.292C206.976 314.277 209.417 315.576 209.287 317.886C209.292 318.779 209.007 319.647 208.476 320.349C207.946 321.052 207.202 321.547 206.366 321.753C206.371 321.772 206.374 321.792 206.374 321.812C206.372 321.827 206.369 321.842 206.365 321.857L209.422 321.834C209.988 321.83 210.547 321.958 211.059 322.207C211.572 322.456 212.024 322.821 212.384 323.274C212.743 323.728 213.001 324.259 213.138 324.829C213.275 325.399 213.288 325.994 213.176 326.57C212.981 327.474 212.493 328.281 211.794 328.856C211.095 329.431 210.227 329.739 209.335 329.729L208.035 329.738C208.017 329.778 207.994 329.813 207.964 329.844C208.844 330.049 209.625 330.573 210.168 331.322C210.71 332.07 210.979 332.995 210.925 333.93C210.838 334.952 210.383 335.902 209.651 336.591C208.919 337.28 207.964 337.657 206.977 337.646L203.746 337.67C203.791 337.703 203.829 337.747 203.855 337.797C203.881 337.848 203.896 337.904 203.898 337.962C203.895 338.031 203.873 338.097 203.834 338.153C204.569 338.562 205.155 339.211 205.5 339.999C205.846 340.788 205.933 341.672 205.747 342.517C205.535 343.399 205.042 344.181 204.349 344.737C203.655 345.292 202.801 345.588 201.926 345.577L174.669 345.779C170.856 345.807 167.122 344.652 163.945 342.461C160.768 340.271 158.293 337.145 156.838 333.484C155.583 330.327 155.562 326.786 156.78 323.613C157.998 320.441 160.359 317.887 163.361 316.494L167.018 314.797Z" fill="#E98862"/>
<g opacity="0.2">
<path d="M188.722 321.652C188.724 321.748 188.761 321.839 188.827 321.906C188.892 321.973 188.981 322.011 189.073 322.011L206.024 322.169C206.117 322.17 206.206 322.133 206.272 322.065C206.339 321.997 206.377 321.905 206.377 321.808C206.378 321.712 206.342 321.619 206.277 321.55C206.212 321.481 206.123 321.441 206.03 321.441L189.079 321.282C188.986 321.282 188.897 321.32 188.831 321.388C188.766 321.457 188.729 321.549 188.729 321.646L188.722 321.652Z" fill="#0C0C0C"/>
</g>
<g opacity="0.2">
<path d="M188.449 329.418C188.45 329.514 188.488 329.605 188.553 329.673C188.619 329.74 188.707 329.778 188.799 329.778L207.716 329.955C207.809 329.955 207.898 329.916 207.964 329.848C208.03 329.78 208.067 329.687 208.067 329.59C208.064 329.495 208.026 329.404 207.961 329.336C207.895 329.269 207.808 329.229 207.716 329.226L188.799 329.049C188.753 329.048 188.707 329.058 188.664 329.076C188.621 329.094 188.582 329.121 188.549 329.154C188.516 329.188 188.49 329.229 188.472 329.273C188.454 329.317 188.445 329.365 188.445 329.413L188.449 329.418Z" fill="#0C0C0C"/>
</g>
<g opacity="0.2">
<path d="M188.106 337.823C188.107 337.918 188.145 338.01 188.21 338.077C188.276 338.144 188.364 338.182 188.456 338.182L203.546 338.323C203.639 338.324 203.729 338.287 203.795 338.219C203.861 338.151 203.899 338.059 203.9 337.962C203.901 337.866 203.865 337.773 203.8 337.704C203.734 337.635 203.645 337.595 203.552 337.595L188.463 337.453C188.37 337.453 188.281 337.492 188.215 337.56C188.149 337.628 188.112 337.721 188.112 337.818L188.106 337.823Z" fill="#0C0C0C"/>
</g>
<path d="M173.296 355.371L51.6789 384.09C47.6387 384.547 43.5516 384.025 39.7382 382.565C35.9249 381.106 32.489 378.748 29.7002 375.677C26.9113 372.606 24.8454 368.906 23.6645 364.866C22.4837 360.826 22.2199 356.557 22.894 352.394L36.8116 236.103C37.9691 228.956 41.812 222.58 47.4949 218.377C53.1778 214.174 60.2353 212.488 67.1147 213.69C73.9941 214.893 80.1319 218.885 84.178 224.788C88.224 230.692 89.8468 238.023 88.6893 245.17L81.9872 328.406L166.483 308.542L173.296 355.371Z" fill="#E47249"/>
<path d="M64.8888 331.677C64.8007 331.677 64.7161 331.641 64.6519 331.579C64.5876 331.516 64.5483 331.431 64.5419 331.34C64.5354 331.248 64.5623 331.158 64.6171 331.086C64.6718 331.015 64.7506 330.967 64.8376 330.953L81.7846 327.194C81.8302 327.186 81.8768 327.188 81.9217 327.199C81.9665 327.211 82.0088 327.231 82.0459 327.26C82.0831 327.288 82.1143 327.324 82.1379 327.365C82.1614 327.407 82.1767 327.452 82.183 327.5C82.1967 327.595 82.1733 327.693 82.1181 327.77C82.0628 327.848 81.9802 327.899 81.8884 327.914L64.9414 331.673C64.924 331.676 64.9064 331.677 64.8888 331.677Z" fill="#0C0C0C"/>
<path d="M55.3277 384.614C55.2347 384.62 55.1431 384.588 55.0731 384.524C55.003 384.46 54.9603 384.37 54.9542 384.273C54.9482 384.177 54.9793 384.082 55.0408 384.009C55.1023 383.936 55.1891 383.892 55.2822 383.885L172.533 355.198L165.889 309.075L81.8975 327.91C81.8432 327.917 81.788 327.911 81.7363 327.892C81.6846 327.874 81.6378 327.843 81.5994 327.802C81.5611 327.761 81.5327 327.711 81.5164 327.657C81.5 327.602 81.4963 327.545 81.5054 327.488L86.2169 279.93C86.2239 279.882 86.24 279.837 86.2643 279.796C86.2885 279.755 86.3204 279.719 86.3581 279.692C86.3958 279.664 86.4384 279.644 86.4836 279.634C86.5287 279.623 86.5754 279.622 86.6209 279.631C86.7126 279.647 86.7944 279.7 86.8483 279.779C86.9023 279.858 86.9239 279.955 86.9085 280.051L82.2791 327.121L166.052 308.271C166.098 308.258 166.145 308.255 166.191 308.261C166.237 308.267 166.282 308.283 166.322 308.307C166.363 308.332 166.398 308.365 166.426 308.404C166.454 308.443 166.474 308.487 166.486 308.534L173.299 355.366C173.32 355.458 173.307 355.555 173.26 355.637C173.214 355.718 173.139 355.778 173.051 355.803L55.3733 384.611C55.3582 384.613 55.343 384.614 55.3277 384.614Z" fill="#0C0C0C"/>
<path d="M550.87 336.657L528.935 326.48C528.453 326.256 527.931 326.14 527.403 326.137C526.876 326.134 526.353 326.246 525.869 326.464C525.385 326.683 524.95 327.004 524.592 327.407C524.234 327.81 523.96 328.286 523.789 328.804C523.501 329.772 523.569 330.816 523.98 331.735C524.392 332.653 525.117 333.38 526.015 333.774L530.718 335.96L512.894 336.151C510.912 336.136 508.471 337.435 508.602 339.746C508.596 340.638 508.882 341.507 509.412 342.209C509.943 342.911 510.687 343.406 511.523 343.612C511.518 343.632 511.514 343.652 511.514 343.672C511.516 343.687 511.519 343.701 511.523 343.716L508.467 343.693C507.901 343.69 507.341 343.817 506.829 344.066C506.316 344.315 505.864 344.68 505.504 345.133C505.145 345.587 504.887 346.118 504.75 346.688C504.613 347.259 504.6 347.853 504.712 348.43C504.907 349.333 505.395 350.14 506.094 350.715C506.793 351.29 507.661 351.598 508.553 351.588L509.854 351.598C509.871 351.637 509.895 351.673 509.924 351.703C509.044 351.909 508.263 352.432 507.721 353.181C507.178 353.93 506.91 354.854 506.963 355.79C507.051 356.812 507.506 357.762 508.238 358.451C508.97 359.14 509.925 359.516 510.912 359.506L514.143 359.53C514.098 359.562 514.06 359.606 514.034 359.657C514.007 359.707 513.993 359.764 513.992 359.821C513.994 359.89 514.016 359.957 514.054 360.013C513.319 360.422 512.734 361.07 512.388 361.859C512.043 362.647 511.956 363.531 512.141 364.376C512.354 365.259 512.847 366.041 513.54 366.596C514.234 367.152 515.088 367.448 515.963 367.436L543.221 367.638C547.034 367.666 550.768 366.511 553.945 364.32C557.122 362.129 559.596 359.002 561.051 355.341C562.306 352.184 562.327 348.643 561.109 345.471C559.891 342.298 557.53 339.744 554.528 338.351L550.87 336.657Z" fill="#E98862"/>
<g opacity="0.2">
<path d="M529.165 343.511C529.164 343.607 529.127 343.698 529.061 343.765C528.995 343.833 528.907 343.87 528.815 343.87L511.864 344.028C511.818 344.029 511.773 344.02 511.73 344.002C511.687 343.984 511.648 343.958 511.615 343.924C511.582 343.891 511.556 343.851 511.538 343.807C511.52 343.763 511.511 343.715 511.51 343.667C511.51 343.62 511.519 343.572 511.536 343.528C511.553 343.483 511.579 343.443 511.611 343.409C511.643 343.375 511.682 343.348 511.724 343.329C511.766 343.31 511.812 343.3 511.858 343.3L528.808 343.141C528.901 343.141 528.991 343.179 529.056 343.248C529.122 343.316 529.159 343.409 529.159 343.505L529.165 343.511Z" fill="#0C0C0C"/>
</g>
<g opacity="0.2">
<path d="M529.439 351.278C529.438 351.373 529.401 351.464 529.336 351.531C529.271 351.598 529.183 351.636 529.092 351.637L510.175 351.814C510.082 351.814 509.992 351.776 509.927 351.707C509.861 351.639 509.824 351.546 509.824 351.45C509.827 351.354 509.865 351.263 509.93 351.196C509.995 351.128 510.082 351.088 510.175 351.085L529.091 350.908C529.184 350.908 529.273 350.947 529.339 351.015C529.405 351.083 529.442 351.176 529.442 351.273L529.439 351.278Z" fill="#0C0C0C"/>
</g>
<g opacity="0.2">
<path d="M529.783 359.682C529.781 359.778 529.744 359.869 529.678 359.936C529.613 360.004 529.524 360.041 529.432 360.041L514.342 360.183C514.296 360.183 514.251 360.174 514.208 360.156C514.165 360.138 514.126 360.112 514.093 360.078C514.061 360.045 514.034 360.005 514.016 359.961C513.998 359.917 513.989 359.869 513.989 359.822C513.988 359.774 513.997 359.726 514.014 359.682C514.031 359.638 514.057 359.597 514.089 359.563C514.121 359.529 514.16 359.502 514.202 359.483C514.244 359.464 514.29 359.454 514.336 359.454L529.426 359.313C529.519 359.313 529.608 359.351 529.674 359.419C529.739 359.488 529.776 359.58 529.776 359.677L529.783 359.682Z" fill="#0C0C0C"/>
</g>
<path d="M551.606 377.23L666.209 384.09C670.249 384.547 674.336 384.025 678.15 382.565C681.963 381.106 685.399 378.748 688.188 375.677C690.976 372.606 693.042 368.906 694.223 364.866C695.404 360.826 695.668 356.557 694.994 352.394L681.079 236.099C680.506 232.56 679.267 229.174 677.434 226.132C675.601 223.091 673.21 220.454 670.396 218.373C667.582 216.292 664.401 214.807 661.034 214.003C657.668 213.199 654.182 213.091 650.776 213.687C647.37 214.282 644.109 215.569 641.182 217.473C638.254 219.377 635.716 221.862 633.713 224.785C631.709 227.708 630.28 231.012 629.506 234.509C628.732 238.006 628.628 241.628 629.201 245.166L635.903 333.503L552.109 330.398L551.606 377.23Z" fill="#E47249"/>
<path d="M652.999 333.135C653.087 333.134 653.172 333.099 653.236 333.036C653.301 332.974 653.34 332.889 653.347 332.797C653.353 332.706 653.326 332.615 653.272 332.544C653.217 332.472 653.138 332.424 653.051 332.41L636.104 332.294C636.058 332.287 636.012 332.288 635.967 332.3C635.922 332.311 635.879 332.332 635.842 332.36C635.805 332.389 635.774 332.424 635.75 332.466C635.727 332.507 635.711 332.553 635.705 332.6C635.691 332.696 635.715 332.793 635.77 332.871C635.825 332.948 635.908 333 636 333.014L652.947 333.13C652.964 333.133 652.982 333.134 652.999 333.135Z" fill="#0C0C0C"/>
<path d="M662.561 384.614C662.654 384.62 662.746 384.588 662.816 384.524C662.886 384.46 662.929 384.37 662.935 384.273C662.941 384.176 662.909 384.081 662.848 384.009C662.786 383.936 662.699 383.892 662.606 383.885L552.368 377.06L552.699 330.937L635.989 333.014C636.043 333.021 636.098 333.015 636.15 332.996C636.202 332.977 636.249 332.946 636.287 332.906C636.325 332.865 636.354 332.815 636.37 332.76C636.386 332.706 636.39 332.648 636.381 332.592L631.67 279.933C631.663 279.885 631.647 279.84 631.623 279.799C631.598 279.758 631.566 279.723 631.529 279.695C631.491 279.667 631.449 279.647 631.403 279.637C631.358 279.626 631.312 279.625 631.266 279.634C631.221 279.642 631.177 279.659 631.138 279.684C631.099 279.71 631.065 279.743 631.038 279.782C631.012 279.821 630.992 279.865 630.982 279.911C630.972 279.958 630.97 280.006 630.978 280.054L635.611 332.225L552.539 330.133C552.494 330.12 552.447 330.117 552.4 330.123C552.354 330.129 552.309 330.145 552.269 330.17C552.229 330.194 552.193 330.227 552.165 330.266C552.137 330.305 552.117 330.349 552.105 330.396L551.605 377.229C551.583 377.321 551.597 377.418 551.643 377.499C551.689 377.581 551.764 377.641 551.852 377.666L662.513 384.607C662.529 384.61 662.545 384.613 662.561 384.614Z" fill="#0C0C0C"/>
</svg>
