<svg width="166" height="30" viewBox="0 0 166 30" fill="none" xmlns="http://www.w3.org/2000/svg">
<path d="M0.305781 29V28.6L1.02578 28.36C1.55911 28.1733 1.91911 27.92 2.10578 27.6C2.29245 27.28 2.38578 26.8533 2.38578 26.32C2.41245 24.72 2.42578 23.1067 2.42578 21.48C2.42578 19.8533 2.42578 18.2267 2.42578 16.6V15C2.42578 13.4 2.42578 11.8 2.42578 10.2C2.42578 8.57333 2.41245 6.96 2.38578 5.36C2.38578 4.82667 2.30578 4.4 2.14578 4.08C2.01245 3.76 1.69245 3.50667 1.18578 3.32L0.305781 3V2.6H19.6658L19.9458 9.24H19.5458L17.2658 5.04C16.9991 4.53333 16.6924 4.13333 16.3458 3.84C15.9991 3.54667 15.5191 3.4 14.9058 3.4H8.46578C8.43911 5.29333 8.42578 7.22667 8.42578 9.2C8.42578 11.1733 8.42578 13.1333 8.42578 15.08H12.5858C13.1991 15.08 13.6524 14.9467 13.9458 14.68C14.2391 14.4133 14.5191 14.0267 14.7858 13.52L15.6258 12H16.0258V19H15.6258L14.7458 17.48C14.4791 17 14.1991 16.6133 13.9058 16.32C13.6391 16.0267 13.1991 15.88 12.5858 15.88H8.42578C8.42578 17.7467 8.42578 19.5333 8.42578 21.24C8.42578 22.92 8.43911 24.5733 8.46578 26.2C8.46578 27.24 8.97245 27.92 9.98578 28.24L11.1858 28.6V29H0.305781ZM27.7392 29.6C26.6992 29.6 25.7392 29.4 24.8592 29C24.0059 28.6 23.3259 27.96 22.8192 27.08C22.3392 26.1733 22.1126 24.9867 22.1392 23.52L22.2592 13.24C22.2592 12.6267 22.1526 12.1867 21.9392 11.92C21.7259 11.6533 21.3926 11.4667 20.9392 11.36L20.4592 11.2V10.8L27.6192 9.4L28.0192 9.8L27.8192 15.48V25.12C27.8192 25.9733 28.0592 26.6 28.5392 27C29.0459 27.4 29.6726 27.6 30.4192 27.6C31.1659 27.6 31.8326 27.4933 32.4192 27.28C33.0059 27.0667 33.5926 26.7467 34.1792 26.32L34.3392 13.28C34.3392 12.6667 34.2459 12.24 34.0592 12C33.8726 11.7333 33.5259 11.5467 33.0192 11.44L32.6192 11.32V10.92L39.6192 9.4L40.0192 9.8L39.8992 15.48V26.32C39.8992 26.9067 39.9792 27.36 40.1392 27.68C40.2992 28 40.6459 28.2667 41.1792 28.48L41.5792 28.6V29L34.5792 29.4L34.2192 27.04C33.3392 27.76 32.3792 28.3733 31.3392 28.88C30.3259 29.36 29.1259 29.6 27.7392 29.6ZM43.3145 29V28.6L43.7945 28.44C44.7545 28.12 45.2345 27.4533 45.2345 26.44V5.04C45.2345 4.50667 45.1279 4.10667 44.9145 3.84C44.7012 3.54667 44.3279 3.33333 43.7945 3.2L43.2745 3.08V2.68L50.5945 0.959999L51.0745 1.32L50.9145 6.92V20.6C50.9145 21.5867 50.9145 22.5733 50.9145 23.56C50.9412 24.52 50.9545 25.48 50.9545 26.44C50.9545 26.9733 51.0612 27.4133 51.2745 27.76C51.4879 28.08 51.8479 28.32 52.3545 28.48L52.8745 28.6V29H43.3145ZM54.7598 29V28.6L55.2398 28.44C56.1998 28.12 56.6798 27.4533 56.6798 26.44V5.04C56.6798 4.50667 56.5732 4.10667 56.3598 3.84C56.1465 3.54667 55.7732 3.33333 55.2398 3.2L54.7198 3.08V2.68L62.0398 0.959999L62.5198 1.32L62.3598 6.92V20.6C62.3598 21.5867 62.3598 22.5733 62.3598 23.56C62.3865 24.52 62.3998 25.48 62.3998 26.44C62.3998 26.9733 62.5065 27.4133 62.7198 27.76C62.9332 28.08 63.2932 28.32 63.7998 28.48L64.3198 28.6V29H54.7598ZM66.6508 19.4V18.32H76.7308V19.4H66.6508ZM81.8377 29V28.6L83.4777 28.2C84.571 27.96 85.1177 27.2933 85.1177 26.2V3.4H81.7177C80.731 3.4 80.0243 3.66667 79.5977 4.2C79.171 4.70667 78.7177 5.41333 78.2377 6.32L76.7977 9.12H76.3977L76.5977 2.6H99.6777L99.8377 9.12H99.4377L97.9977 6.32C97.5443 5.41333 97.1043 4.70667 96.6777 4.2C96.251 3.66667 95.5443 3.4 94.5577 3.4H91.1577V26.2C91.1577 27.2933 91.7043 27.96 92.7977 28.2L94.4377 28.6V29H81.8377ZM105.846 7.08C104.939 7.08 104.166 6.8 103.526 6.24C102.913 5.65333 102.606 4.92 102.606 4.04C102.606 3.13333 102.913 2.4 103.526 1.84C104.166 1.28 104.939 0.999998 105.846 0.999998C106.753 0.999998 107.513 1.28 108.126 1.84C108.739 2.4 109.046 3.13333 109.046 4.04C109.046 4.92 108.739 5.65333 108.126 6.24C107.513 6.8 106.753 7.08 105.846 7.08ZM101.126 29V28.6L101.686 28.44C102.219 28.28 102.579 28.04 102.766 27.72C102.979 27.4 103.086 26.9733 103.086 26.44V13.92C103.086 13.36 102.979 12.9467 102.766 12.68C102.579 12.3867 102.219 12.1867 101.686 12.08L101.126 11.96V11.56L108.446 9.2L108.846 9.6L108.726 15.28V26.48C108.726 27.0133 108.819 27.44 109.006 27.76C109.219 28.08 109.579 28.32 110.086 28.48L110.486 28.6V29H101.126ZM112.257 29V28.6L112.817 28.44C113.324 28.3067 113.67 28.08 113.857 27.76C114.07 27.44 114.19 27.0133 114.217 26.48V13.96C114.217 13.3733 114.124 12.9467 113.937 12.68C113.75 12.3867 113.39 12.1867 112.857 12.08L112.257 11.92V11.52L119.097 9.2L119.497 9.6L119.817 12.32C120.697 11.44 121.697 10.6933 122.817 10.08C123.964 9.46667 125.15 9.16 126.377 9.16C127.657 9.16 128.684 9.42667 129.457 9.96C130.23 10.4667 130.817 11.2667 131.217 12.36C132.257 11.3733 133.377 10.6 134.577 10.04C135.804 9.45333 136.99 9.16 138.137 9.16C140.03 9.16 141.417 9.61333 142.297 10.52C143.204 11.4267 143.657 12.8533 143.657 14.8V26.52C143.657 27.56 144.137 28.2133 145.097 28.48L145.537 28.6V29H136.297V28.6L136.697 28.48C137.204 28.32 137.55 28.08 137.737 27.76C137.95 27.44 138.057 27.0133 138.057 26.48V14.24C138.057 13.12 137.857 12.36 137.457 11.96C137.057 11.5333 136.417 11.32 135.537 11.32C134.844 11.32 134.164 11.48 133.497 11.8C132.857 12.0933 132.177 12.5467 131.457 13.16C131.59 13.5867 131.67 14.0533 131.697 14.56C131.75 15.0667 131.777 15.6 131.777 16.16V26.52C131.804 27.56 132.284 28.2133 133.217 28.48L133.577 28.6V29H124.297V28.6L124.857 28.44C125.364 28.28 125.71 28.0533 125.897 27.76C126.11 27.44 126.217 27.0133 126.217 26.48V14.28C126.217 13.2133 126.017 12.4533 125.617 12C125.244 11.5467 124.59 11.32 123.657 11.32C123.044 11.32 122.43 11.48 121.817 11.8C121.204 12.0933 120.564 12.5333 119.897 13.12V26.52C119.897 27.56 120.364 28.2133 121.297 28.48L121.657 28.6V29H112.257ZM157.141 9.16C158.874 9.16 160.354 9.52 161.581 10.24C162.807 10.9333 163.741 11.8933 164.381 13.12C165.047 14.32 165.381 15.6933 165.381 17.24C165.381 17.5333 165.367 17.84 165.341 18.16C165.314 18.4533 165.261 18.72 165.181 18.96H153.261C153.287 21.84 153.794 23.92 154.781 25.2C155.794 26.4533 157.287 27.08 159.261 27.08C160.594 27.08 161.674 26.8667 162.501 26.44C163.327 26.0133 164.101 25.3867 164.821 24.56L165.221 24.92C164.394 26.3867 163.287 27.5333 161.901 28.36C160.541 29.1867 158.901 29.6 156.981 29.6C155.087 29.6 153.407 29.2 151.941 28.4C150.474 27.5733 149.327 26.4 148.501 24.88C147.674 23.36 147.261 21.5467 147.261 19.44C147.261 17.2533 147.741 15.4 148.701 13.88C149.661 12.3333 150.887 11.16 152.381 10.36C153.901 9.56 155.487 9.16 157.141 9.16ZM157.021 9.96C156.247 9.96 155.581 10.2 155.021 10.68C154.487 11.1333 154.061 11.96 153.741 13.16C153.447 14.3333 153.287 16 153.261 18.16H160.101C160.367 15.2533 160.261 13.16 159.781 11.88C159.301 10.6 158.381 9.96 157.021 9.96Z" fill="#353640"/>
</svg>
