<svg width="175" height="29" viewBox="0 0 175 29" fill="none" xmlns="http://www.w3.org/2000/svg">
<path d="M0.313594 28V27.6L1.11359 27.32C1.64693 27.16 1.99359 26.92 2.15359 26.6C2.34026 26.28 2.43359 25.8533 2.43359 25.32V4.36C2.43359 3.82667 2.34026 3.4 2.15359 3.08C1.96693 2.76 1.60693 2.50667 1.07359 2.32L0.313594 2V1.6H10.0336C14.0069 1.6 16.8736 2.33333 18.6336 3.8C20.4203 5.24 21.3136 7.14667 21.3136 9.52C21.3136 11.04 20.9403 12.44 20.1936 13.72C19.4736 14.9733 18.2736 15.9733 16.5936 16.72C14.9136 17.4667 12.6469 17.84 9.79359 17.84H8.43359V25.2C8.43359 26.24 8.95359 26.92 9.99359 27.24L11.1936 27.6V28H0.313594ZM8.43359 17.04H9.95359C11.2603 17.04 12.3269 16.8267 13.1536 16.4C13.9803 15.9733 14.5936 15.2267 14.9936 14.16C15.3936 13.0933 15.5936 11.6133 15.5936 9.72C15.5936 7.8 15.3669 6.30667 14.9136 5.24C14.4869 4.17333 13.8469 3.44 12.9936 3.04C12.1403 2.61333 11.0736 2.4 9.79359 2.4H8.43359V17.04ZM28.2611 28.6C26.7144 28.6 25.4078 28.16 24.3411 27.28C23.3011 26.4 22.7811 25.1333 22.7811 23.48C22.7811 22.2267 23.4211 21.08 24.7011 20.04C25.9811 18.9733 27.9944 18.1733 30.7411 17.64C31.1678 17.56 31.6478 17.48 32.1811 17.4C32.7144 17.2933 33.2744 17.1867 33.8611 17.08V13.92C33.8611 12.1067 33.6344 10.84 33.1811 10.12C32.7544 9.37333 32.0744 9 31.1411 9C30.5011 9 29.9944 9.21333 29.6211 9.64C29.2478 10.04 29.0078 10.7467 28.9011 11.76L28.8211 12.2C28.7678 13.3467 28.4878 14.1867 27.9811 14.72C27.4744 15.2533 26.8478 15.52 26.1011 15.52C25.4078 15.52 24.8344 15.3067 24.3811 14.88C23.9278 14.4533 23.7011 13.88 23.7011 13.16C23.7011 12.0667 24.0744 11.1467 24.8211 10.4C25.5944 9.65333 26.6078 9.09333 27.8611 8.72C29.1144 8.34667 30.4744 8.16 31.9411 8.16C34.3144 8.16 36.1411 8.74667 37.4211 9.92C38.7278 11.0667 39.3811 12.9467 39.3811 15.56V24.4C39.3811 25.6 39.9411 26.2 41.0611 26.2H41.9411L42.3011 26.52C41.7944 27.16 41.2344 27.6533 40.6211 28C40.0344 28.3467 39.1944 28.52 38.1011 28.52C36.9278 28.52 35.9944 28.2533 35.3011 27.72C34.6344 27.16 34.1944 26.4267 33.9811 25.52C33.1811 26.3733 32.3544 27.1067 31.5011 27.72C30.6744 28.3067 29.5944 28.6 28.2611 28.6ZM30.7011 26.16C31.2344 26.16 31.7278 26.04 32.1811 25.8C32.6611 25.5333 33.2211 25.1333 33.8611 24.6V17.88C33.5944 17.9333 33.3278 17.9867 33.0611 18.04C32.7944 18.0933 32.4878 18.1467 32.1411 18.2C30.9144 18.52 29.9278 19.0667 29.1811 19.84C28.4611 20.5867 28.1011 21.6 28.1011 22.88C28.1011 23.9733 28.3544 24.8 28.8611 25.36C29.3678 25.8933 29.9811 26.16 30.7011 26.16ZM43.0461 28V27.6L43.6461 27.44C44.1794 27.28 44.5394 27.04 44.7261 26.72C44.9394 26.4 45.0461 25.9867 45.0461 25.48V12.96C45.0461 12.3733 44.9394 11.9467 44.7261 11.68C44.5394 11.3867 44.1794 11.1867 43.6461 11.08L43.0461 10.92V10.52L49.9261 8.2L50.3261 8.6L50.6861 12.04V12.36C51.0594 11.6133 51.5394 10.9333 52.1261 10.32C52.7394 9.68 53.4061 9.16 54.1261 8.76C54.8728 8.36 55.6061 8.16 56.3261 8.16C57.3394 8.16 58.1128 8.44 58.6461 9C59.1794 9.56 59.4461 10.2667 59.4461 11.12C59.4461 12.0267 59.1794 12.7333 58.6461 13.24C58.1394 13.72 57.5261 13.96 56.8061 13.96C55.6861 13.96 54.6994 13.4 53.8461 12.28L53.7661 12.2C53.4994 11.8267 53.1928 11.6267 52.8461 11.6C52.4994 11.5467 52.1794 11.7067 51.8861 12.08C51.6194 12.32 51.3928 12.6133 51.2061 12.96C51.0461 13.28 50.8861 13.6533 50.7261 14.08V25.24C50.7261 26.3067 51.1928 26.9733 52.1261 27.24L53.4061 27.6V28H43.0461ZM68.6539 28.6C66.9472 28.6 65.6139 28.1733 64.6539 27.32C63.7206 26.4667 63.2539 25.1067 63.2539 23.24V9.56H60.4939V9.16L61.4539 9C62.2806 8.81333 62.9872 8.54667 63.5739 8.2C64.1872 7.85333 64.7872 7.38667 65.3739 6.8L68.6539 3.16H69.0539L68.9339 8.76H73.4139V9.56H68.8939V23.96C68.8939 24.8933 69.0939 25.6 69.4939 26.08C69.9206 26.56 70.4539 26.8 71.0939 26.8C71.6539 26.8 72.1472 26.6667 72.5739 26.4C73.0006 26.1067 73.4272 25.72 73.8539 25.24L74.2539 25.64C73.7206 26.5467 72.9872 27.2667 72.0539 27.8C71.1206 28.3333 69.9872 28.6 68.6539 28.6ZM75.643 18.4V17.32H85.723V18.4H75.643ZM90.8298 28V27.6L92.4698 27.2C93.5632 26.96 94.1098 26.2933 94.1098 25.2V2.4H90.7098C89.7232 2.4 89.0165 2.66667 88.5898 3.2C88.1632 3.70667 87.7098 4.41333 87.2298 5.32L85.7898 8.12H85.3898L85.5898 1.6H108.67L108.83 8.12H108.43L106.99 5.32C106.537 4.41333 106.097 3.70667 105.67 3.2C105.243 2.66667 104.537 2.4 103.55 2.4H100.15V25.2C100.15 26.2933 100.697 26.96 101.79 27.2L103.43 27.6V28H90.8298ZM114.838 6.08C113.932 6.08 113.158 5.8 112.518 5.24C111.905 4.65333 111.598 3.92 111.598 3.04C111.598 2.13333 111.905 1.4 112.518 0.839999C113.158 0.279998 113.932 -1.90735e-06 114.838 -1.90735e-06C115.745 -1.90735e-06 116.505 0.279998 117.118 0.839999C117.732 1.4 118.038 2.13333 118.038 3.04C118.038 3.92 117.732 4.65333 117.118 5.24C116.505 5.8 115.745 6.08 114.838 6.08ZM110.118 28V27.6L110.678 27.44C111.212 27.28 111.572 27.04 111.758 26.72C111.972 26.4 112.078 25.9733 112.078 25.44V12.92C112.078 12.36 111.972 11.9467 111.758 11.68C111.572 11.3867 111.212 11.1867 110.678 11.08L110.118 10.96V10.56L117.438 8.2L117.838 8.6L117.718 14.28V25.48C117.718 26.0133 117.812 26.44 117.998 26.76C118.212 27.08 118.572 27.32 119.078 27.48L119.478 27.6V28H110.118ZM121.249 28V27.6L121.809 27.44C122.316 27.3067 122.663 27.08 122.849 26.76C123.063 26.44 123.183 26.0133 123.209 25.48V12.96C123.209 12.3733 123.116 11.9467 122.929 11.68C122.743 11.3867 122.383 11.1867 121.849 11.08L121.249 10.92V10.52L128.089 8.2L128.489 8.6L128.809 11.32C129.689 10.44 130.689 9.69333 131.809 9.08C132.956 8.46667 134.143 8.16 135.369 8.16C136.649 8.16 137.676 8.42667 138.449 8.96C139.223 9.46667 139.809 10.2667 140.209 11.36C141.249 10.3733 142.369 9.6 143.569 9.04C144.796 8.45333 145.983 8.16 147.129 8.16C149.023 8.16 150.409 8.61333 151.289 9.52C152.196 10.4267 152.649 11.8533 152.649 13.8V25.52C152.649 26.56 153.129 27.2133 154.089 27.48L154.529 27.6V28H145.289V27.6L145.689 27.48C146.196 27.32 146.543 27.08 146.729 26.76C146.943 26.44 147.049 26.0133 147.049 25.48V13.24C147.049 12.12 146.849 11.36 146.449 10.96C146.049 10.5333 145.409 10.32 144.529 10.32C143.836 10.32 143.156 10.48 142.489 10.8C141.849 11.0933 141.169 11.5467 140.449 12.16C140.583 12.5867 140.663 13.0533 140.689 13.56C140.743 14.0667 140.769 14.6 140.769 15.16V25.52C140.796 26.56 141.276 27.2133 142.209 27.48L142.569 27.6V28H133.289V27.6L133.849 27.44C134.356 27.28 134.703 27.0533 134.889 26.76C135.103 26.44 135.209 26.0133 135.209 25.48V13.28C135.209 12.2133 135.009 11.4533 134.609 11C134.236 10.5467 133.583 10.32 132.649 10.32C132.036 10.32 131.423 10.48 130.809 10.8C130.196 11.0933 129.556 11.5333 128.889 12.12V25.52C128.889 26.56 129.356 27.2133 130.289 27.48L130.649 27.6V28H121.249ZM166.133 8.16C167.866 8.16 169.346 8.52 170.573 9.24C171.8 9.93333 172.733 10.8933 173.373 12.12C174.04 13.32 174.373 14.6933 174.373 16.24C174.373 16.5333 174.36 16.84 174.333 17.16C174.306 17.4533 174.253 17.72 174.173 17.96H162.253C162.28 20.84 162.786 22.92 163.773 24.2C164.786 25.4533 166.28 26.08 168.253 26.08C169.586 26.08 170.666 25.8667 171.493 25.44C172.32 25.0133 173.093 24.3867 173.813 23.56L174.213 23.92C173.386 25.3867 172.28 26.5333 170.893 27.36C169.533 28.1867 167.893 28.6 165.973 28.6C164.08 28.6 162.4 28.2 160.933 27.4C159.466 26.5733 158.32 25.4 157.493 23.88C156.666 22.36 156.253 20.5467 156.253 18.44C156.253 16.2533 156.733 14.4 157.693 12.88C158.653 11.3333 159.88 10.16 161.373 9.36C162.893 8.56 164.48 8.16 166.133 8.16ZM166.013 8.96C165.24 8.96 164.573 9.2 164.013 9.68C163.48 10.1333 163.053 10.96 162.733 12.16C162.44 13.3333 162.28 15 162.253 17.16H169.093C169.36 14.2533 169.253 12.16 168.773 10.88C168.293 9.6 167.373 8.96 166.013 8.96Z" fill="#353640"/>
</svg>
