<svg width="609" height="865" viewBox="0 0 609 865" fill="none" xmlns="http://www.w3.org/2000/svg">
<path d="M370.5 864.539C165.878 864.539 0 671.005 0 432.269C0 193.534 165.878 0 370.5 0C575.121 0 741 193.534 741 432.269C741 671.005 575.121 864.539 370.5 864.539Z" fill="#E8E2D3"/>
<path d="M102.699 350.256H459.298V74.0853C459.298 73.96 459.256 73.8399 459.18 73.7513C459.104 73.6627 459.001 73.6129 458.894 73.6129C458.786 73.6129 458.683 73.6627 458.607 73.7513C458.531 73.8399 458.489 73.96 458.489 74.0853V349.311H102.699C102.592 349.311 102.489 349.361 102.413 349.449C102.337 349.538 102.294 349.658 102.294 349.783C102.294 349.909 102.337 350.029 102.413 350.117C102.489 350.206 102.592 350.256 102.699 350.256Z" fill="#E6D0BE"/>
<path d="M177.882 129.09L220.394 159.081L219.973 159.893L177.461 129.903L177.882 129.09Z" fill="#F7F1EB"/>
<path d="M314.033 52.8319L314.713 53.3467L257.396 156.282L256.717 155.767L314.033 52.8319Z" fill="#F7F1EB"/>
<path d="M339.742 47.9346L384.282 88.5052L383.784 89.25L339.244 48.6794L339.742 47.9346Z" fill="#F7F1EB"/>
<path d="M398.399 124.711C408.749 124.711 417.167 114.79 417.167 102.578C417.167 90.3656 408.749 80.4494 398.399 80.4494C388.049 80.4494 379.631 90.3703 379.631 102.578C379.631 114.785 388.049 124.711 398.399 124.711ZM398.399 81.3943C408.303 81.3943 416.357 90.8947 416.357 102.578C416.357 114.261 408.303 123.766 398.399 123.766C388.495 123.766 380.441 114.261 380.441 102.578C380.441 90.8947 388.499 81.3943 398.399 81.3943Z" fill="#F7F1EB"/>
<path d="M324.359 57.3291C334.709 57.3291 343.131 47.4081 343.131 35.1959C343.131 22.9837 334.709 13.0628 324.359 13.0628C314.01 13.0628 305.591 22.9837 305.591 35.1959C305.591 47.4081 314.014 57.3291 324.359 57.3291ZM324.359 14.0076C334.264 14.0076 342.322 23.5128 342.322 35.1959C342.322 46.879 334.264 56.3842 324.359 56.3842C314.455 56.3842 306.401 46.879 306.401 35.1959C306.401 23.5128 314.459 14.0076 324.359 14.0076Z" fill="#F7F1EB"/>
<path d="M246.514 196.298C256.864 196.298 265.286 186.377 265.286 174.17C265.286 161.962 256.864 152.037 246.514 152.037C236.165 152.037 227.746 161.957 227.746 174.17C227.746 186.382 236.169 196.298 246.514 196.298ZM246.514 152.981C256.419 152.981 264.476 162.487 264.476 174.17C264.476 185.853 256.419 195.353 246.514 195.353C236.61 195.353 228.556 185.848 228.556 174.17C228.556 162.491 236.614 152.981 246.514 152.981Z" fill="#F7F1EB"/>
<path d="M171.888 145.782C182.237 145.782 190.656 135.861 190.656 123.653C190.656 111.446 182.237 101.52 171.888 101.52C161.538 101.52 153.12 111.441 153.12 123.653C153.12 135.865 161.538 145.782 171.888 145.782ZM171.888 102.465C181.792 102.465 189.846 111.97 189.846 123.653C189.846 135.336 181.792 144.837 171.888 144.837C161.983 144.837 153.913 135.332 153.913 123.653C153.913 111.975 161.987 102.465 171.888 102.465Z" fill="#F7F1EB"/>
<path d="M374.428 158.65H420.098V306.349H374.428V158.65Z" fill="#E6D0BE"/>
<path d="M299.06 129.227H344.731V306.348H299.06V129.227Z" fill="#E6D0BE"/>
<path d="M223.693 210.9H269.363V306.349H223.693V210.9Z" fill="#E6D0BE"/>
<path d="M148.326 183.49H193.996V306.344H148.326V183.49Z" fill="#E6D0BE"/>
<path d="M96.0992 334.695H627.388V373.764H96.0992V334.695Z" fill="white"/>
<path d="M96.103 775.435H627.388C627.495 775.435 627.598 775.385 627.674 775.296C627.75 775.208 627.793 775.087 627.793 774.962V334.695C627.793 334.632 627.782 334.57 627.761 334.513C627.74 334.455 627.71 334.403 627.671 334.359C627.596 334.272 627.494 334.223 627.388 334.222H96.103C95.9957 334.222 95.8927 334.272 95.8168 334.361C95.7408 334.449 95.6981 334.569 95.6981 334.695V774.957C95.6976 775.02 95.7077 775.082 95.7278 775.14C95.7479 775.197 95.7777 775.25 95.8154 775.295C95.853 775.339 95.8979 775.374 95.9473 775.398C95.9966 775.422 96.0496 775.435 96.103 775.435ZM626.987 774.49H96.508V335.167H626.983L626.987 774.49Z" fill="white"/>
<path d="M597.776 356.497C596.81 351.721 599.345 346.935 603.439 345.807C607.533 344.68 611.636 347.638 612.602 352.415C613.568 357.191 611.033 361.978 606.939 363.105C602.845 364.232 598.742 361.274 597.776 356.497Z" fill="#F2E6DC"/>
<path d="M575.128 360.788C572.153 357.318 572.153 351.691 575.128 348.221C578.102 344.751 582.925 344.751 585.899 348.221C588.873 351.691 588.873 357.318 585.899 360.788C582.925 364.259 578.102 364.259 575.128 360.788Z" fill="#F2E6DC"/>
<path d="M550.518 360.789C547.543 357.319 547.543 351.692 550.518 348.222C553.492 344.752 558.315 344.752 561.289 348.222C564.264 351.692 564.264 357.319 561.289 360.789C558.315 364.259 553.492 364.259 550.518 360.789Z" fill="#F2E6DC"/>
<path d="M68.1641 674.765L105.911 645.598L44.4482 653.752C24.5748 632.294 11.998 608.923 11.998 608.923C11.998 608.923 21.4852 603.405 36.042 598.057L78.7731 634.316L60.1751 591.084C72.8733 588.434 86.9644 587.173 101.015 589.157C102.995 589.436 104.919 589.79 106.797 590.21L136.62 654.744L135.943 604.733C152.707 619.279 159.761 640.741 155.675 657.266C149.407 682.617 115.993 700.696 78.3357 680.954C74.8473 679.118 71.4513 677.051 68.1641 674.765Z" fill="#8B865C"/>
<path d="M36.0418 598.057C43.9516 595.139 52.0122 592.81 60.175 591.084L78.7729 634.316L36.0418 598.057Z" fill="#776E42"/>
<path d="M136.619 654.744L106.797 590.21C118.475 592.818 128.238 598.043 135.951 604.733L136.619 654.744Z" fill="#776E42"/>
<path d="M68.1638 674.765C59.4945 668.756 51.5096 661.372 44.4478 653.747L105.91 645.597L68.1638 674.765Z" fill="#776E42"/>
<path d="M190.51 715.64C190.586 715.642 190.661 715.617 190.725 715.569C190.77 715.536 190.809 715.493 190.84 715.443C190.871 715.392 190.893 715.335 190.905 715.274C190.917 715.214 190.919 715.151 190.91 715.09C190.902 715.028 190.882 714.97 190.854 714.917C178.405 691.659 161.657 671.942 141.835 657.21C125.575 645.187 107.546 636.783 88.661 632.427C88.6079 632.415 88.5532 632.415 88.5001 632.427C88.447 632.44 88.3966 632.465 88.3516 632.5C88.3067 632.535 88.2681 632.581 88.2381 632.633C88.2082 632.686 88.1874 632.745 88.177 632.807C88.1667 632.869 88.1671 632.933 88.1778 632.995C88.1886 633.057 88.2096 633.116 88.2399 633.168C88.2702 633.221 88.309 633.265 88.3542 633.3C88.3994 633.335 88.4499 633.36 88.5031 633.372C107.291 637.705 125.227 646.065 141.402 658.028C161.12 672.686 177.78 692.3 190.166 715.437C190.204 715.501 190.256 715.554 190.316 715.589C190.376 715.625 190.443 715.642 190.51 715.64Z" fill="#776E42"/>
<path d="M78.2302 587.055L123.95 580.148L60.2074 551.5C46.1568 517.807 39.9331 486.556 39.9331 486.556C39.9331 486.556 50.9348 486.66 66.9574 489.986L99.853 552.412L93.0097 497.408C106.441 502.345 120.892 509.525 134.417 519.98C136.32 521.451 138.153 522.964 139.916 524.52L152.193 607.866L165.15 556.749C177.966 581.566 179.184 607.568 170.592 621.868C157.42 643.808 119.042 642.074 86.7173 599.433C83.729 595.497 80.9067 591.345 78.2302 587.055Z" fill="#776E42"/>
<path d="M66.9655 489.986C75.7769 491.806 84.4789 494.285 93.0178 497.407L99.8609 552.412L66.9655 489.986Z" fill="#8B865C"/>
<path d="M139.924 524.52C150.905 534.176 159.25 545.339 165.146 556.749L152.189 607.865L139.924 524.52Z" fill="#8B865C"/>
<path d="M78.2302 587.055C71.1887 575.755 65.2082 563.476 60.2155 551.5L123.95 580.148L78.2302 587.055Z" fill="#8B865C"/>
<path d="M189.688 701.996C189.718 702.001 189.747 702.001 189.777 701.996C189.829 701.983 189.879 701.957 189.923 701.921C189.966 701.886 190.004 701.84 190.032 701.787C190.061 701.735 190.08 701.676 190.089 701.614C190.098 701.553 190.097 701.49 190.085 701.429C183.791 669.962 172.485 640.154 156.756 613.558C143.935 591.824 128.262 572.58 110.312 556.532C110.269 556.493 110.221 556.465 110.169 556.449C110.118 556.433 110.063 556.429 110.01 556.437C109.957 556.446 109.906 556.466 109.86 556.498C109.814 556.529 109.773 556.571 109.741 556.621C109.676 556.721 109.648 556.847 109.662 556.971C109.677 557.095 109.733 557.207 109.818 557.283C127.7 573.262 143.316 592.425 156.092 614.068C171.764 640.571 183.027 670.275 189.295 701.632C189.316 701.736 189.366 701.828 189.438 701.894C189.509 701.96 189.597 701.996 189.688 701.996Z" fill="#776E42"/>
<path d="M530.921 753.471L531.297 753.301L689.782 682.437L689.64 681.993L663.122 601.251L662.746 601.416L504.261 672.28L504.407 672.72L530.921 753.471ZM688.737 681.908L531.386 752.248L505.306 672.828L662.657 602.489L688.737 681.908Z" fill="#363E44"/>
<path d="M531.151 752.862L548.024 759.712L660.191 709.569L667.746 691.801L673.832 672.772L665.042 646.009L649.618 636.598L633.822 629.266L521.652 679.409L513.023 697.659L506.937 716.688L515.724 743.446L531.151 752.862Z" fill="#D3BBA3"/>
<path d="M572.98 715.038C563.369 703.825 563.369 685.644 572.98 674.43C582.591 663.217 598.174 663.217 607.785 674.43C617.396 685.644 617.396 703.825 607.785 715.038C598.174 726.252 582.591 726.252 572.98 715.038Z" fill="#E6D0BE"/>
<path d="M507.476 716.48C507.297 716.561 507.119 716.613 506.941 716.688L498.146 689.916L521.656 679.405C523.988 686.515 523.805 694.415 521.145 701.368C518.486 708.321 513.569 713.757 507.476 716.48Z" fill="#E6D0BE"/>
<path d="M524.519 770.219L515.728 743.446C515.902 743.361 516.064 743.257 516.242 743.177C522.337 740.454 529.109 740.666 535.07 743.767C541.03 746.867 545.691 752.603 548.028 759.712L524.519 770.219Z" fill="#E6D0BE"/>
<path d="M547.526 774.83L547.603 774.796L676.513 717.161L676.367 716.716L649.853 635.969L649.472 636.14L490.987 707.003L491.133 707.447L512.999 774.059H513.27L547.526 774.83ZM675.48 716.627L547.396 773.885L513.582 773.124L492.02 707.547L649.383 637.217L675.48 716.627Z" fill="white"/>
<path d="M689.389 422.906L643.662 415.999L707.404 387.351C721.455 353.658 727.678 322.407 727.678 322.407C727.678 322.407 716.677 322.511 700.654 325.832L667.754 388.249L674.598 333.244C661.166 338.181 646.715 345.362 633.191 355.817C631.301 357.284 629.468 358.796 627.692 360.352L615.411 443.702L602.453 392.586C589.638 417.402 588.419 443.4 597.011 457.705C610.183 479.644 648.557 477.91 680.886 435.269C683.891 431.348 686.713 427.195 689.389 422.906Z" fill="#776E42"/>
<path d="M627.696 360.376C616.714 370.037 608.369 381.195 602.473 392.609L615.431 443.726L627.696 360.376Z" fill="#8B865C"/>
<path d="M577.931 537.842C578.024 537.845 578.115 537.81 578.189 537.744C578.263 537.678 578.315 537.584 578.336 537.478C584.603 506.119 595.867 476.414 611.54 449.909C624.315 428.259 639.931 409.088 657.814 393.1C657.899 393.024 657.955 392.911 657.969 392.786C657.983 392.662 657.954 392.536 657.888 392.436C657.823 392.337 657.726 392.272 657.62 392.255C657.513 392.239 657.405 392.273 657.32 392.349C639.369 408.396 623.695 427.64 610.875 449.375C595.146 475.971 583.84 505.779 577.547 537.247C577.535 537.307 577.533 537.37 577.542 537.431C577.551 537.492 577.57 537.551 577.598 537.604C577.626 537.656 577.663 537.702 577.706 537.738C577.75 537.774 577.799 537.8 577.851 537.814C577.877 537.827 577.904 537.836 577.931 537.842Z" fill="#776E42"/>
<path d="M561.322 213.693L619.225 267.686C644.783 230.364 639.576 175.946 607.596 146.126C599.991 139.035 591.264 133.762 581.912 130.606C572.561 127.451 562.768 126.476 553.093 127.736C543.419 128.996 534.052 132.468 525.527 137.952C517.002 143.436 509.487 150.826 503.41 159.699L561.322 213.693Z" fill="#E6D0BE"/>
<path d="M561.322 222.928L492.287 254.443C507.208 298.922 550.19 320.876 588.334 303.467C601.028 297.675 610.718 289.346 619.229 276.921L561.322 222.928Z" fill="#F7F1EB"/>
<path d="M486.12 249.668L556.171 217.68L555.624 217.169L497.409 162.902L497.158 163.27C480.087 188.196 476.009 219.532 485.974 249.252L486.12 249.668ZM554.584 217.396L486.582 248.444C476.961 219.328 480.949 188.682 497.539 164.21L554.584 217.396Z" fill="#E6D0BE"/>
<path d="M267.133 445.167C194.474 522.989 163.684 575.943 191.178 605.626C207.128 622.841 262.189 598.766 322.307 540.904C305.005 510.654 288.751 481.222 267.133 445.167Z" fill="#84524D"/>
<path d="M268.238 543.171C209.152 465.098 168.514 408.388 155.383 391.451C153.129 388.417 150.515 385.773 147.621 383.6C132.906 372.706 120.418 382.06 100.468 378.847C77.829 375.2 66.8598 358.193 62.5191 362.752C59.5025 365.922 62.0939 373.693 71.901 386.018C63.5273 377.657 51.7483 366.895 47.8003 372.318C43.5284 378.852 56.097 393.393 64.0658 401.755C54.4166 391.631 46.6908 389.618 45.1359 393.251C42.7064 399.01 48.602 408.889 61.7983 421.691C50.5699 415.824 47.0957 416.353 46.4114 419.976C45.1318 426.59 56.1538 436.88 67.0907 444.231C79.4002 452.508 91.4101 453.939 99.0023 454.624C135.526 514.31 158.93 552.747 187.598 601.652C188.985 604.017 190.778 606.02 192.863 607.534C194.948 609.048 197.28 610.04 199.711 610.447C202.142 610.855 204.62 610.668 206.986 609.9C209.352 609.132 211.555 607.798 213.456 605.984C235.184 585.25 247.105 573.123 268.238 543.171Z" fill="#84524D"/>
<path d="M267.57 542.732C267.668 542.732 267.763 542.69 267.837 542.614C267.918 542.531 267.967 542.415 267.973 542.29C267.98 542.165 267.944 542.042 267.874 541.948C254.847 524.733 241.935 507.517 228.394 489.324C228.36 489.275 228.317 489.235 228.27 489.205C228.222 489.176 228.169 489.158 228.115 489.152C228.061 489.147 228.007 489.154 227.955 489.173C227.904 489.193 227.856 489.225 227.815 489.266C227.774 489.307 227.741 489.358 227.717 489.415C227.693 489.472 227.679 489.533 227.676 489.597C227.673 489.66 227.681 489.723 227.699 489.783C227.717 489.842 227.746 489.897 227.783 489.943C241.323 508.141 254.24 525.375 267.266 542.571C267.304 542.622 267.351 542.662 267.403 542.69C267.456 542.718 267.512 542.732 267.57 542.732Z" fill="#363E44"/>
<path d="M128.169 429.609C128.244 429.609 128.318 429.584 128.382 429.537C128.446 429.491 128.498 429.424 128.531 429.345C128.565 429.266 128.578 429.177 128.571 429.089C128.563 429.002 128.535 428.918 128.489 428.848C124.979 423.515 120.205 419.5 114.758 417.302C105.08 413.438 96.569 416.783 93.358 418.398C93.2592 418.448 93.1811 418.541 93.1413 418.658C93.1014 418.774 93.1028 418.904 93.1452 419.02C93.1876 419.135 93.2676 419.226 93.3675 419.272C93.4673 419.319 93.5791 419.317 93.6779 419.268C96.8038 417.694 105.084 414.439 114.495 418.195C119.795 420.332 124.441 424.236 127.857 429.425C127.894 429.481 127.941 429.526 127.995 429.558C128.049 429.59 128.108 429.607 128.169 429.609Z" fill="#363E44"/>
<path d="M118.175 386.765C104.323 365.916 103.116 354.97 106.028 352.514C110.907 348.385 128.978 360.545 152.512 388.035C142.912 388.683 127.768 386.117 118.175 386.765Z" fill="#84524D"/>
<path d="M113.697 380.851C116.418 380.709 118.997 380.444 121.492 380.189C126.756 379.651 131.716 379.14 136.551 380.005C136.603 380.014 136.657 380.011 136.709 379.997C136.76 379.982 136.809 379.955 136.852 379.918C136.895 379.881 136.931 379.835 136.959 379.782C136.986 379.729 137.004 379.669 137.012 379.608C137.028 379.485 137.002 379.359 136.939 379.258C136.876 379.157 136.782 379.089 136.676 379.069C131.74 378.191 126.727 378.706 121.423 379.249C118.937 379.504 116.365 379.764 113.665 379.906C113.557 379.906 113.454 379.955 113.378 380.044C113.302 380.133 113.26 380.253 113.26 380.378C113.26 380.503 113.302 380.624 113.378 380.712C113.454 380.801 113.557 380.851 113.665 380.851H113.697Z" fill="#363E44"/>
<path d="M90.981 395.477C91.0884 395.488 91.195 395.448 91.2773 395.367C91.3597 395.286 91.4112 395.17 91.4203 395.045C91.4294 394.92 91.3955 394.795 91.326 394.699C91.2565 394.603 91.1572 394.543 91.0498 394.532C84.4468 393.151 78.1993 390.037 72.7798 385.424C72.6928 385.35 72.5842 385.32 72.4779 385.339C72.3716 385.359 72.2763 385.427 72.213 385.528C72.1496 385.63 72.1235 385.756 72.1402 385.88C72.1569 386.004 72.2152 386.116 72.3021 386.189C77.822 390.885 84.184 394.056 90.908 395.463L90.981 395.477Z" fill="#363E44"/>
<path d="M81.9352 409.843C82.0316 409.845 82.1253 409.806 82.1995 409.735C82.2738 409.663 82.3237 409.562 82.3401 409.451C82.359 409.329 82.3355 409.202 82.2749 409.099C82.2142 408.997 82.1211 408.926 82.016 408.903C75.4115 407.523 69.1625 404.409 63.7421 399.795C63.6991 399.758 63.6502 399.732 63.5984 399.717C63.5466 399.703 63.4929 399.7 63.4402 399.71C63.3876 399.719 63.337 399.741 63.2916 399.774C63.2461 399.806 63.2067 399.849 63.1753 399.899C63.1439 399.949 63.1214 400.006 63.1089 400.066C63.0964 400.127 63.0941 400.19 63.1023 400.251C63.1106 400.312 63.1291 400.371 63.1569 400.424C63.1847 400.477 63.2212 400.524 63.2643 400.56C68.79 405.259 75.1594 408.43 81.8905 409.834L81.9352 409.843Z" fill="#363E44"/>
<path d="M80.5666 431.466C80.674 431.477 80.7808 431.438 80.8635 431.358C80.9463 431.277 80.9984 431.161 81.0081 431.036C81.0177 430.911 80.9842 430.786 80.9151 430.69C80.846 430.593 80.7469 430.532 80.6395 430.521C74.0355 429.139 67.787 426.025 62.3656 421.413C62.2785 421.345 62.1723 421.32 62.0695 421.342C61.9666 421.364 61.875 421.431 61.8138 421.53C61.7526 421.629 61.7265 421.752 61.741 421.872C61.7556 421.993 61.8097 422.103 61.8919 422.178C67.4108 426.873 73.7714 430.044 80.4938 431.452L80.5666 431.466Z" fill="#363E44"/>
<path d="M148.512 623.172L287.536 755.205C292.525 759.93 299.757 759.212 303.689 753.576L334.697 709.125L336.507 689.921L353.384 682.362L362.908 668.709C366.84 663.068 365.985 654.659 360.993 649.921L221.948 517.892C216.959 513.168 209.727 513.881 205.796 519.517L196.272 533.17L194.425 551.316L177.585 559.961L146.576 604.412C142.665 610.024 143.523 618.434 148.512 623.172Z" fill="white"/>
<path d="M196.266 533.215L353.382 682.4L334.696 709.189L177.579 560.004L196.266 533.215Z" fill="#D3BBA3"/>
<path d="M240.683 773.507C240.683 773.507 271.32 580.016 402.246 576.746C535.213 573.439 563.808 773.507 563.808 773.507H240.683Z" fill="#EFBC73"/>
<path d="M274.024 692.671C287.577 692.671 304.628 689.099 320.472 675.526C336.56 661.746 344.298 643.808 347.958 631.18C347.984 631.064 347.972 630.941 347.923 630.835C347.875 630.73 347.794 630.65 347.697 630.611C347.599 630.573 347.493 630.579 347.4 630.629C347.306 630.678 347.232 630.767 347.193 630.878C343.569 643.373 335.908 661.113 319.995 674.766C300.793 691.211 279.786 692.817 265.541 691.258C265.434 691.246 265.327 691.285 265.244 691.365C265.16 691.445 265.108 691.561 265.098 691.686C265.088 691.811 265.12 691.936 265.189 692.033C265.258 692.13 265.357 692.191 265.464 692.203C268.1 692.491 270.975 692.671 274.024 692.671Z" fill="#363E44"/>
<path d="M522.093 416.774C566.003 435.156 695.52 479.134 679.088 542.387C665.499 594.694 540.987 545.354 496.369 530.402C504.94 492.529 513.514 454.653 522.093 416.774Z" fill="#84524D"/>
<path d="M231.39 433.498C258.953 418.631 301.729 401.572 345.002 393.814C449.503 375.163 534.314 410.453 575.227 431.523C565.565 468.24 555.904 524.728 546.242 561.44C531.058 560.798 541.294 560.155 526.114 559.508C535.873 597.179 539.363 616.199 545.182 637.902C449.39 637.581 364.074 636.868 268.282 636.547C276.429 598.54 282.244 570.034 286.589 548.746C273.307 521.988 253.928 481.719 231.39 433.498Z" fill="#F7F1EB"/>
<path d="M403.339 486.674C365.823 486.674 335.41 464.243 335.41 436.573C335.41 408.903 365.823 386.472 403.339 386.472C440.855 386.472 471.268 408.903 471.268 436.573C471.268 464.243 440.855 486.674 403.339 486.674Z" fill="#84524D"/>
<path d="M355.466 271.035C352.031 271.035 349.246 267.787 349.246 263.779C349.246 259.771 352.031 256.522 355.466 256.522C358.9 256.522 361.685 259.771 361.685 263.779C361.685 267.787 358.9 271.035 355.466 271.035Z" fill="#363E44"/>
<path d="M393.54 242.104C391.422 241.863 371.091 239.922 358.842 256.145C349.728 268.215 348.635 283.706 350.169 310.001C351.971 340.983 356.761 359.204 364.406 365.322C376.481 374.983 412.672 353.375 426.281 326.323C436.105 306.798 434.983 281.651 424.601 262.333C414.219 243.016 394.896 242.269 393.54 242.104Z" fill="#84524D"/>
<path d="M404.363 417.676H402.404C391.113 417.676 381.959 406.997 381.959 393.823V311.47C381.959 298.297 391.113 287.617 402.404 287.617H404.363C415.654 287.617 424.808 298.297 424.808 311.47V393.823C424.808 406.997 415.654 417.676 404.363 417.676Z" fill="#84524D"/>
<path d="M382.449 366.692C382.491 366.701 382.533 366.701 382.575 366.692C391.001 363.508 400.019 358.156 406.7 352.373C406.743 352.336 406.779 352.29 406.806 352.237C406.834 352.183 406.852 352.124 406.86 352.063C406.868 352.001 406.865 351.939 406.852 351.879C406.839 351.818 406.816 351.762 406.785 351.712C406.753 351.662 406.713 351.62 406.668 351.588C406.622 351.556 406.571 351.534 406.519 351.525C406.466 351.516 406.412 351.519 406.361 351.534C406.309 351.549 406.261 351.576 406.218 351.612C399.602 357.338 390.669 362.639 382.328 365.785C382.236 365.82 382.159 365.892 382.108 365.988C382.058 366.084 382.039 366.197 382.054 366.308C382.069 366.419 382.118 366.52 382.191 366.593C382.264 366.666 382.357 366.706 382.453 366.706L382.449 366.692Z" fill="#363E44"/>
<path d="M379.59 379.49H426.97V389.369H379.59V379.49Z" fill="#F7F1EB"/>
<path d="M424.854 313.948C421.866 310.461 421.866 304.808 424.854 301.321C427.843 297.834 432.689 297.834 435.677 301.321C438.666 304.808 438.666 310.461 435.677 313.948C432.688 317.435 427.843 317.435 424.854 313.948Z" fill="#363E44"/>
<path d="M409.927 303.782C408.755 297.99 411.83 292.186 416.794 290.819C421.759 289.452 426.734 293.039 427.905 298.832C429.077 304.624 426.002 310.428 421.038 311.795C416.073 313.162 411.099 309.575 409.927 303.782Z" fill="#363E44"/>
<path d="M371.508 260.382C367.118 260.382 363.56 256.23 363.56 251.108C363.56 245.987 367.118 241.835 371.508 241.835C375.898 241.835 379.457 245.987 379.457 251.108C379.457 256.23 375.898 260.382 371.508 260.382Z" fill="#363E44"/>
<path d="M383.296 260.93C379.179 260.93 375.841 257.036 375.841 252.233C375.841 247.43 379.179 243.536 383.296 243.536C387.413 243.536 390.75 247.43 390.75 252.233C390.75 257.036 387.413 260.93 383.296 260.93Z" fill="#363E44"/>
<path d="M392.115 265.314C388.592 263.612 386.92 258.9 388.379 254.79C389.838 250.68 393.876 248.728 397.399 250.43C400.922 252.133 402.594 256.845 401.135 260.955C399.676 265.065 395.638 267.016 392.115 265.314Z" fill="#363E44"/>
<path d="M360.661 261.318C356.982 261.318 354 257.838 354 253.546C354 249.254 356.982 245.775 360.661 245.775C364.339 245.775 367.322 249.254 367.322 253.546C367.322 257.838 364.339 261.318 360.661 261.318Z" fill="#363E44"/>
<path d="M371.034 255.034C366.645 255.034 363.086 250.882 363.086 245.761C363.086 240.639 366.645 236.487 371.034 236.487C375.424 236.487 378.983 240.639 378.983 245.761C378.983 250.882 375.424 255.034 371.034 255.034Z" fill="#363E44"/>
<path d="M382.287 251.666C377.524 251.666 373.663 247.161 373.663 241.603C373.663 236.046 377.524 231.54 382.287 231.54C387.051 231.54 390.912 236.046 390.912 241.603C390.912 247.161 387.051 251.666 382.287 251.666Z" fill="#363E44"/>
<path d="M395.743 252.616C390.566 252.616 386.369 247.719 386.369 241.679C386.369 235.639 390.566 230.742 395.743 230.742C400.92 230.742 405.117 235.639 405.117 241.679C405.117 247.719 400.92 252.616 395.743 252.616Z" fill="#363E44"/>
<path d="M409.044 256.003C403.941 256.003 399.804 251.176 399.804 245.222C399.804 239.268 403.941 234.441 409.044 234.441C414.148 234.441 418.285 239.268 418.285 245.222C418.285 251.176 414.148 256.003 409.044 256.003Z" fill="#363E44"/>
<path d="M417.75 263.491C412.504 263.491 408.251 258.529 408.251 252.408C408.251 246.287 412.504 241.325 417.75 241.325C422.996 241.325 427.249 246.287 427.249 252.408C427.249 258.529 422.996 263.491 417.75 263.491Z" fill="#363E44"/>
<path d="M425.192 272.543C420.802 272.543 417.244 268.391 417.244 263.269C417.244 258.147 420.802 253.995 425.192 253.995C429.582 253.995 433.141 258.147 433.141 263.269C433.141 268.391 429.582 272.543 425.192 272.543Z" fill="#363E44"/>
<path d="M422.12 278.333C421.417 273.277 424.359 268.513 428.692 267.693C433.025 266.872 437.108 270.305 437.812 275.361C438.515 280.416 435.572 285.18 431.239 286.001C426.906 286.821 422.823 283.388 422.12 278.333Z" fill="#363E44"/>
<path d="M400.686 270.64C397.582 267.019 397.582 261.147 400.686 257.525C403.79 253.904 408.823 253.904 411.927 257.525C415.031 261.147 415.031 267.019 411.927 270.641C408.823 274.262 403.79 274.262 400.686 270.64Z" fill="#363E44"/>
<path d="M396.438 258.565C393.742 255.42 393.742 250.32 396.438 247.174C399.134 244.028 403.505 244.028 406.201 247.174C408.897 250.32 408.897 255.42 406.201 258.565C403.505 261.711 399.134 261.711 396.438 258.565Z" fill="#363E44"/>
<path d="M405.73 276.765C404.759 271.965 407.307 267.156 411.42 266.024C415.534 264.891 419.656 267.863 420.627 272.663C421.598 277.462 419.05 282.271 414.936 283.404C410.823 284.537 406.701 281.564 405.73 276.765Z" fill="#363E44"/>
<path d="M413.56 275.121C410.571 271.634 410.571 265.98 413.56 262.493C416.548 259.007 421.394 259.006 424.383 262.493C427.371 265.98 427.371 271.634 424.383 275.121C421.394 278.608 416.548 278.608 413.56 275.121Z" fill="#363E44"/>
<path d="M412.38 289.306C411.24 283.672 414.231 278.025 419.06 276.696C423.89 275.366 428.729 278.855 429.869 284.49C431.009 290.125 428.018 295.771 423.188 297.101C418.359 298.431 413.519 294.941 412.38 289.306Z" fill="#363E44"/>
<path d="M427.284 298.413C424.295 294.926 424.295 289.273 427.283 285.786C430.272 282.299 435.118 282.299 438.107 285.786C441.095 289.273 441.095 294.926 438.106 298.413C435.118 301.9 430.272 301.9 427.284 298.413Z" fill="#363E44"/>
<path d="M330.531 293.221C330.531 293.221 332.758 301.88 338.58 308.636C339.795 310.053 347.217 295.777 345.464 295.059C337.904 291.983 330.531 293.221 330.531 293.221Z" fill="white"/>
<path d="M362.851 317.295C362.851 317.295 351.635 319.185 342.706 312.528C341.197 311.395 339.797 310.074 338.532 308.588C338.613 305.828 339.3 303.139 340.528 300.777C341.755 298.416 343.481 296.461 345.541 295.101C347.335 295.831 349.053 296.798 350.659 297.983C359.612 304.63 362.851 317.295 362.851 317.295Z" fill="#363E44"/>
<path d="M361.608 332.871C361.693 332.872 361.777 332.842 361.846 332.784C361.916 332.726 361.968 332.645 361.996 332.55C362.023 332.456 362.024 332.354 361.999 332.259C361.974 332.164 361.923 332.08 361.855 332.021C359.64 330.055 358.616 328.322 358.786 326.862C358.903 325.884 359.551 325.279 360.373 324.5C361.279 323.731 362.061 322.783 362.685 321.698C363.9 319.487 364.208 316.615 363.629 313.162C363.608 313.039 363.546 312.931 363.458 312.861C363.369 312.791 363.26 312.765 363.155 312.788C363.05 312.812 362.957 312.884 362.897 312.988C362.837 313.091 362.815 313.218 362.835 313.341C363.373 316.554 363.09 319.194 362.001 321.193C361.423 322.188 360.701 323.058 359.867 323.763C358.98 324.59 358.146 325.374 357.98 326.72C357.757 328.567 358.867 330.547 361.365 332.762C361.434 332.829 361.519 332.867 361.608 332.871Z" fill="#363E44"/>
<path d="M370.399 343.543C371.715 343.556 372.997 343.058 374.043 342.126C376.011 340.35 376.294 337.605 376.335 336.806C376.341 336.681 376.305 336.558 376.233 336.464C376.162 336.37 376.062 336.313 375.954 336.306C375.847 336.298 375.741 336.341 375.661 336.424C375.58 336.507 375.531 336.624 375.525 336.75C375.489 337.449 375.242 339.844 373.549 341.38C371.735 343.024 369.095 343.014 366.941 341.38C366.852 341.311 366.743 341.287 366.638 341.311C366.534 341.336 366.441 341.408 366.382 341.512C366.352 341.563 366.332 341.622 366.321 341.683C366.311 341.744 366.311 341.807 366.322 341.868C366.332 341.929 366.353 341.987 366.383 342.038C366.413 342.09 366.451 342.134 366.495 342.168C367.652 343.065 369.01 343.543 370.399 343.543Z" fill="#363E44"/>
<path d="M414.029 330.825C418.965 332.271 424.771 329.219 428.059 322.993C431.975 315.571 430.821 306.458 425.488 302.617C420.916 299.31 414.766 300.997 410.631 306.203L414.029 330.825Z" fill="#84524D"/>
<path d="M416.523 331.657C421.018 331.657 425.638 328.482 428.403 323.238C430.316 319.717 431.108 315.524 430.643 311.39C430.136 307.398 428.383 304.143 425.699 302.216C421.03 298.861 414.713 300.368 410.336 305.882C410.295 305.926 410.263 305.979 410.241 306.039C410.219 306.098 410.208 306.162 410.208 306.227C410.208 306.292 410.219 306.356 410.241 306.415C410.264 306.475 410.296 306.528 410.337 306.572C410.377 306.616 410.425 306.65 410.478 306.672C410.53 306.693 410.585 306.702 410.641 306.698C410.696 306.693 410.75 306.675 410.799 306.646C410.849 306.616 410.892 306.574 410.927 306.524C415.041 301.327 420.941 299.91 425.273 303.019C427.752 304.795 429.371 307.818 429.841 311.522C430.281 315.436 429.528 319.405 427.715 322.738C424.593 328.657 419.005 331.789 414.126 330.363C414.022 330.333 413.912 330.352 413.82 330.417C413.728 330.481 413.662 330.586 413.636 330.707C413.61 330.828 413.626 330.956 413.681 331.063C413.735 331.17 413.824 331.248 413.928 331.279C414.776 331.53 415.648 331.657 416.523 331.657Z" fill="#363E44"/>
<path d="M422.135 320.22C422.197 320.22 422.258 320.203 422.313 320.171C422.369 320.139 422.417 320.093 422.455 320.035C423.561 318.445 424.201 316.483 424.281 314.437C424.322 312.467 423.718 310.809 422.577 309.77C420.613 307.97 417.56 308.47 415.15 310.989C415.108 311.029 415.072 311.079 415.046 311.135C415.02 311.192 415.005 311.254 415 311.318C414.996 311.382 415.002 311.446 415.02 311.507C415.037 311.568 415.065 311.624 415.102 311.672C415.138 311.719 415.183 311.758 415.233 311.785C415.283 311.812 415.337 311.827 415.391 311.829C415.446 311.831 415.501 311.82 415.552 311.797C415.603 311.773 415.65 311.738 415.689 311.692C417.803 309.486 420.426 309 422.079 310.511C423.014 311.366 423.508 312.751 423.476 314.414C423.399 316.258 422.817 318.025 421.815 319.454C421.75 319.553 421.72 319.678 421.733 319.802C421.746 319.926 421.8 320.039 421.884 320.116C421.955 320.182 422.044 320.219 422.135 320.22Z" fill="#363E44"/>
<path d="M370.897 317.29C370.897 317.29 378.323 319.86 386.36 317.886C388.041 317.475 381.882 302.409 380.4 303.713C374.055 309.41 370.897 317.29 370.897 317.29Z" fill="white"/>
<path d="M405.882 298.961C405.882 298.961 401.079 310.937 391.418 316.001C389.778 316.845 388.065 317.478 386.308 317.891C384.375 316.297 382.824 314.152 381.804 311.66C380.783 309.168 380.328 306.412 380.481 303.657C381.992 302.308 383.628 301.163 385.36 300.246C395.018 295.181 405.882 298.961 405.882 298.961Z" fill="#363E44"/>
<path d="M487.65 412.819L528.535 402.209L569.458 616.863L528.572 627.473L487.65 412.819Z" fill="#E0AA63"/>
<path d="M365.867 444.426L493.673 411.259L534.596 625.913L406.789 659.08L365.867 444.426Z" fill="#EFBC73"/>
<path d="M502.731 432.55L528.284 425.918L531.947 445.13L506.394 451.761L502.731 432.55Z" fill="white"/>
<path d="M507.966 459.996L533.519 453.365L537.182 472.576L511.628 479.208L507.966 459.996Z" fill="white"/>
<path d="M513.201 487.453L538.754 480.822L542.417 500.033L516.863 506.665L513.201 487.453Z" fill="white"/>
<path d="M513.087 523.959L538.742 517.24L542.453 536.528L516.798 543.247L513.087 523.959Z" fill="white"/>
<path d="M546.534 602.82C547.328 602.819 548.119 602.717 548.895 602.518C550.994 601.973 552.909 600.714 554.395 598.9C555.882 597.086 556.874 594.798 557.246 592.326C557.618 589.855 557.354 587.309 556.486 585.013C555.618 582.716 554.187 580.772 552.372 579.424C550.557 578.077 548.44 577.388 546.29 577.445C544.139 577.501 542.051 578.3 540.29 579.741C538.529 581.182 537.173 583.199 536.395 585.539C535.616 587.879 535.45 590.435 535.917 592.885C536.458 595.701 537.803 598.219 539.733 600.024C541.662 601.83 544.061 602.816 546.534 602.82ZM546.554 578.381C548.451 578.385 550.309 579.014 551.913 580.196C553.517 581.378 554.803 583.064 555.621 585.061C556.44 587.058 556.758 589.284 556.54 591.483C556.322 593.682 555.575 595.764 554.387 597.489C553.199 599.215 551.617 600.514 549.824 601.236C548.03 601.959 546.099 602.076 544.251 601.573C542.403 601.071 540.715 599.97 539.38 598.396C538.045 596.823 537.118 594.842 536.707 592.682C536.131 589.641 536.612 586.458 538.044 583.831C539.476 581.203 541.743 579.346 544.347 578.665C545.072 578.477 545.812 578.382 546.554 578.381Z" fill="white"/>
<path d="M459.348 456.181L500.233 445.571L541.156 660.225L500.27 670.835L459.348 456.181Z" fill="#776E42"/>
<path d="M337.572 487.787L465.379 454.62L506.302 669.274L378.495 702.441L337.572 487.787Z" fill="#8B865C"/>
<path d="M474.433 475.907L499.987 469.276L503.649 488.487L478.096 495.119L474.433 475.907Z" fill="white"/>
<path d="M479.664 503.358L505.218 496.726L508.88 515.938L483.327 522.569L479.664 503.358Z" fill="white"/>
<path d="M484.903 530.814L510.456 524.182L514.119 543.394L488.565 550.025L484.903 530.814Z" fill="white"/>
<path d="M490.134 558.261L515.688 551.63L519.35 570.841L493.797 577.473L490.134 558.261Z" fill="white"/>
<path d="M518.214 646.193C520.468 646.197 522.667 645.384 524.508 643.867C526.348 642.349 527.739 640.202 528.489 637.722C529.238 635.242 529.308 632.552 528.69 630.023C528.072 627.495 526.796 625.252 525.038 623.607C523.28 621.961 521.128 620.993 518.878 620.837C516.628 620.68 514.392 621.343 512.479 622.734C510.566 624.125 509.071 626.174 508.2 628.599C507.329 631.025 507.125 633.706 507.617 636.272C508.157 639.083 509.5 641.596 511.426 643.398C513.351 645.201 515.745 646.186 518.214 646.193ZM518.254 621.754C520.151 621.758 522.008 622.387 523.611 623.568C525.215 624.75 526.499 626.435 527.318 628.431C528.136 630.427 528.454 632.652 528.236 634.85C528.018 637.048 527.272 639.129 526.084 640.854C524.896 642.579 523.315 643.878 521.523 644.6C519.73 645.322 517.799 645.439 515.952 644.937C514.105 644.435 512.418 643.334 511.083 641.762C509.749 640.19 508.823 638.21 508.411 636.05C507.834 633.01 508.315 629.827 509.747 627.2C511.18 624.573 513.447 622.716 516.052 622.038C516.775 621.847 517.513 621.749 518.254 621.745V621.754Z" fill="white"/>
<path d="M611.685 480.201C573.372 490.018 482.164 507.923 473.321 510.082C456.788 514.126 368.548 538.494 370.18 553.73C370.962 561.015 388.142 557.211 393.92 555.733C389.758 559.611 372.403 572.494 375.059 580.11C378.185 589.086 400.881 577.408 401.335 577.483C396.767 580.923 378.1 593.768 379.906 599.569C382.251 607.128 402.687 601.246 408.736 599.158C408.331 600.339 389.977 614.106 391.576 618.66C393.349 623.701 412.522 618.754 420.268 617.621C434.959 614.044 492.692 603.722 520.939 600.264C587.285 592.143 616.532 585.085 648.019 574.578C660.344 570.463 672.099 560.797 677.076 549.365C683.376 534.889 680.149 520.547 667.726 513.215C649.043 502.202 630.502 491.355 611.685 480.201Z" fill="#84524D"/>
<path d="M561.763 491.095C561.787 491.1 561.812 491.1 561.836 491.095C584.26 486.281 600.595 482.544 611.774 479.682C611.828 479.668 611.878 479.643 611.923 479.607C611.967 479.571 612.006 479.525 612.035 479.471C612.095 479.364 612.115 479.233 612.092 479.108C612.069 478.982 612.004 478.873 611.912 478.803C611.82 478.734 611.708 478.71 611.6 478.737C600.433 481.6 584.106 485.351 561.69 490.146C561.583 490.157 561.484 490.218 561.415 490.314C561.345 490.411 561.312 490.535 561.322 490.661C561.331 490.786 561.383 490.902 561.466 490.982C561.549 491.063 561.656 491.102 561.763 491.091V491.095Z" fill="#363E44"/>
<path d="M393.589 555.539C393.663 555.539 393.736 555.514 393.799 555.469C402.195 549.383 411.52 545.249 421.261 543.294C421.368 543.273 421.464 543.203 421.527 543.099C421.59 542.995 421.615 542.867 421.597 542.741C421.578 542.616 421.518 542.504 421.429 542.431C421.341 542.357 421.23 542.328 421.123 542.349C411.282 544.323 401.86 548.494 393.374 554.632C393.328 554.665 393.289 554.707 393.257 554.758C393.226 554.808 393.203 554.865 393.191 554.926C393.178 554.986 393.176 555.049 393.185 555.111C393.193 555.172 393.212 555.231 393.24 555.284C393.273 555.359 393.323 555.422 393.384 555.467C393.446 555.512 393.516 555.537 393.589 555.539Z" fill="#363E44"/>
<path d="M400.913 577.541C400.973 577.54 401.033 577.526 401.088 577.498C401.76 577.12 402.448 576.752 403.132 576.393C408.926 573.399 415.013 571.247 421.257 569.986C421.364 569.965 421.46 569.895 421.523 569.791C421.586 569.688 421.611 569.559 421.593 569.434C421.574 569.308 421.514 569.197 421.425 569.123C421.336 569.05 421.226 569.02 421.119 569.042C414.809 570.314 408.658 572.49 402.804 575.519C402.112 575.878 401.416 576.251 400.735 576.629C400.687 576.656 400.644 576.693 400.608 576.74C400.572 576.786 400.545 576.84 400.527 576.899C400.509 576.958 400.502 577.02 400.505 577.083C400.508 577.145 400.522 577.206 400.545 577.262C400.577 577.345 400.629 577.415 400.694 577.465C400.759 577.514 400.836 577.54 400.913 577.541Z" fill="#363E44"/>
<path d="M409.097 599.324C409.141 599.331 409.186 599.331 409.23 599.324C413.151 597.747 417.174 596.54 421.261 595.714C421.368 595.693 421.464 595.623 421.527 595.519C421.59 595.416 421.615 595.287 421.597 595.162C421.578 595.036 421.518 594.925 421.429 594.851C421.341 594.777 421.23 594.748 421.123 594.769C416.996 595.603 412.934 596.823 408.975 598.417C408.887 598.454 408.812 598.527 408.764 598.622C408.716 598.717 408.698 598.829 408.714 598.938C408.729 599.046 408.777 599.146 408.848 599.218C408.92 599.29 409.01 599.331 409.105 599.333L409.097 599.324Z" fill="#363E44"/>
<path d="M285.791 548.907C285.886 548.909 285.979 548.871 286.053 548.801C286.127 548.731 286.178 548.633 286.196 548.524L292.27 511.16C292.28 511.098 292.279 511.034 292.268 510.972C292.256 510.911 292.235 510.852 292.204 510.8C292.174 510.748 292.135 510.704 292.089 510.669C292.044 510.635 291.993 510.611 291.94 510.6C291.887 510.589 291.832 510.589 291.779 510.603C291.726 510.616 291.676 510.641 291.632 510.677C291.587 510.712 291.549 510.758 291.52 510.811C291.49 510.864 291.47 510.923 291.46 510.985L285.386 548.344C285.376 548.406 285.377 548.468 285.388 548.529C285.399 548.59 285.42 548.648 285.45 548.699C285.48 548.751 285.518 548.795 285.563 548.829C285.608 548.863 285.658 548.886 285.71 548.897L285.791 548.907Z" fill="#363E44"/>
<path d="M30.9965 216.044L171.216 158.56L165.757 115.512L25.5381 172.997L30.9965 216.044Z" fill="#776E42"/>
<path d="M41.8565 201.229L159.643 152.942L156.622 129.094L38.8358 177.381L41.8565 201.229Z" fill="#EFBC73"/>
<path d="M30.944 215.873L171.161 158.39L211.178 291.266L70.961 348.748L30.944 215.873Z" fill="#8B865C"/>
<path d="M70.4832 315.812L88.2243 308.539L94.458 329.238L76.7169 336.511L70.4832 315.812Z" fill="#EFBC73"/>
<path d="M60.9172 284.043L78.6583 276.77L84.892 297.469L67.1509 304.742L60.9172 284.043Z" fill="#EFBC73"/>
<path d="M51.3515 252.284L69.0926 245.011L75.3263 265.71L57.5852 272.983L51.3515 252.284Z" fill="white"/>
<path d="M41.7816 220.516L59.5226 213.243L65.7563 233.942L48.0153 241.215L41.7816 220.516Z" fill="white"/>
<path d="M96.9945 304.95L114.736 297.677L120.969 318.376L103.228 325.649L96.9945 304.95Z" fill="white"/>
<path d="M87.4286 273.18L105.17 265.907L111.403 286.606L93.6623 293.879L87.4286 273.18Z" fill="white"/>
<path d="M77.8627 241.417L95.6039 234.144L101.838 254.843L84.0964 262.116L77.8627 241.417Z" fill="white"/>
<path d="M68.293 209.649L86.0341 202.376L92.2678 223.075L74.5267 230.348L68.293 209.649Z" fill="white"/>
<path d="M123.504 294.078L141.246 286.805L147.479 307.504L129.738 314.777L123.504 294.078Z" fill="white"/>
<path d="M113.938 262.308L131.68 255.036L137.913 275.734L120.172 283.007L113.938 262.308Z" fill="white"/>
<path d="M104.368 230.541L122.11 223.268L128.343 243.966L110.602 251.239L104.368 230.541Z" fill="white"/>
<path d="M94.7989 198.777L112.54 191.504L118.774 212.203L101.033 219.476L94.7989 198.777Z" fill="white"/>
<path d="M150.012 283.207L167.753 275.934L173.987 296.632L156.246 303.905L150.012 283.207Z" fill="white"/>
<path d="M140.442 251.443L158.183 244.17L164.417 264.869L146.676 272.142L140.442 251.443Z" fill="white"/>
<path d="M130.88 219.678L148.621 212.405L154.855 233.104L137.114 240.377L130.88 219.678Z" fill="white"/>
<path d="M121.314 187.915L139.055 180.643L145.289 201.341L127.548 208.614L121.314 187.915Z" fill="#EFBC73"/>
<path d="M167.371 241.958L185.112 234.685L200.496 285.768L182.755 293.041L167.371 241.958Z" fill="white"/>
<path d="M157.391 208.816L175.132 201.543L181.366 222.242L163.625 229.515L157.391 208.816Z" fill="white"/>
<path d="M147.822 177.043L165.563 169.77L171.796 190.469L154.055 197.742L147.822 177.043Z" fill="#EFBC73"/>
<path d="M291.78 790.613L291.897 790.14L313.127 707.296L312.722 707.164L150.136 650.444L150.018 650.917L128.788 733.761L129.193 733.893L291.78 790.613ZM312.119 707.938L291.237 789.422L129.797 733.119L150.674 651.635L312.119 707.938Z" fill="#363E44"/>
<path d="M129.291 733.441L139.073 750.883L254.155 791.025L269.437 782.327L284.212 771.589L291.246 744.132L283.949 725.688L275.272 708.634L160.186 668.487L143.803 676.801L129.027 687.544L121.994 714.997L129.291 733.441Z" fill="#D3BBA3"/>
<path d="M206.621 758.281C193.029 758.281 182.011 745.425 182.011 729.567C182.011 713.709 193.029 700.853 206.621 700.853C220.214 700.853 231.232 713.709 231.232 729.567C231.232 745.425 220.214 758.281 206.621 758.281Z" fill="#E6D0BE"/>
<path d="M291.25 744.127C285.142 741.815 280.052 736.808 277.067 730.176C274.081 723.544 273.437 715.813 275.272 708.634L298.287 716.665L291.25 744.127Z" fill="#E6D0BE"/>
<path d="M284.212 771.589L277.174 799.056L254.159 791.024C256.002 783.848 260.177 777.798 265.793 774.166C271.409 770.535 278.019 769.609 284.212 771.589Z" fill="#E6D0BE"/>
<path d="M129.562 687.766C129.379 687.7 129.209 687.615 129.031 687.544L136.069 660.077L160.19 668.491C158.318 675.785 154.04 681.913 148.296 685.528C142.553 689.142 135.814 689.948 129.562 687.766Z" fill="#E6D0BE"/>
<path d="M114.956 742.464L121.994 714.997C122.176 715.054 122.362 715.091 122.544 715.153C128.796 717.335 134.049 722.323 137.148 729.023C140.248 735.722 140.94 743.583 139.073 750.878L114.956 742.464Z" fill="#E6D0BE"/>
<path d="M263.108 808.669L263.225 808.197L284.455 725.352L284.05 725.215L121.443 668.491L121.33 668.964L100.1 751.808L100.485 751.945L263.108 808.669ZM283.447 725.995L262.565 807.483L101.12 751.166L122.006 669.677L283.447 725.995Z" fill="white"/>
</svg>
