<svg width="118" height="30" viewBox="0 0 118 30" fill="none" xmlns="http://www.w3.org/2000/svg">
<path d="M12.693 29.4262C11.0663 29.4262 9.49297 29.1328 7.97297 28.5462C6.47964 27.9595 5.13297 27.0928 3.93297 25.9462C2.75964 24.7728 1.8263 23.3195 1.13297 21.5862C0.439636 19.8528 0.0929688 17.8262 0.0929688 15.5062C0.0929688 13.2128 0.439636 11.1995 1.13297 9.46618C1.8263 7.73284 2.77297 6.29284 3.97297 5.14617C5.17297 3.97284 6.51964 3.09284 8.01297 2.50618C9.53297 1.89284 11.093 1.58618 12.693 1.58618C14.3196 1.58618 15.8796 1.87951 17.373 2.46618C18.893 3.02618 20.2396 3.89284 21.413 5.06618C22.613 6.21284 23.5596 7.66618 24.253 9.42618C24.9463 11.1595 25.293 13.1862 25.293 15.5062C25.293 17.7728 24.9463 19.7862 24.253 21.5462C23.5596 23.2795 22.613 24.7328 21.413 25.9062C20.2396 27.0528 18.893 27.9328 17.373 28.5462C15.8796 29.1328 14.3196 29.4262 12.693 29.4262ZM12.693 28.5862C14.1596 28.5862 15.3463 28.1995 16.253 27.4262C17.1596 26.6262 17.813 25.2795 18.213 23.3862C18.6396 21.4662 18.853 18.8395 18.853 15.5062C18.853 12.1462 18.6396 9.51951 18.213 7.62618C17.813 5.70618 17.1596 4.35951 16.253 3.58618C15.3463 2.78618 14.1596 2.38617 12.693 2.38617C11.253 2.38617 10.0796 2.78618 9.17297 3.58618C8.2663 4.35951 7.59964 5.70618 7.17297 7.62618C6.77297 9.51951 6.57297 12.1462 6.57297 15.5062C6.57297 18.8395 6.77297 21.4662 7.17297 23.3862C7.59964 25.2795 8.2663 26.6262 9.17297 27.4262C10.0796 28.1995 11.253 28.5862 12.693 28.5862ZM34.4898 29.3062C32.7832 29.3062 31.4498 28.8795 30.4898 28.0262C29.5565 27.1728 29.0898 25.8128 29.0898 23.9462V10.2662H26.3298V9.86618L27.2898 9.70618C28.1165 9.51951 28.8232 9.25284 29.4098 8.90618C30.0232 8.55951 30.6232 8.09284 31.2098 7.50618L34.4898 3.86617H34.8898L34.7698 9.46618H39.2498V10.2662H34.7298V24.6662C34.7298 25.5995 34.9298 26.3062 35.3298 26.7862C35.7565 27.2662 36.2898 27.5062 36.9298 27.5062C37.4898 27.5062 37.9832 27.3728 38.4098 27.1062C38.8365 26.8128 39.2632 26.4262 39.6898 25.9462L40.0898 26.3462C39.5565 27.2528 38.8232 27.9728 37.8898 28.5062C36.9565 29.0395 35.8232 29.3062 34.4898 29.3062ZM41.463 28.7062V28.3062L41.943 28.1462C42.903 27.8262 43.383 27.1595 43.383 26.1462V4.78617C43.383 4.22618 43.2896 3.81284 43.103 3.54618C42.9163 3.27951 42.5563 3.07951 42.023 2.94617L41.423 2.78618V2.38617L48.463 0.666175L49.103 1.02618L48.943 6.66618V11.6662C49.8763 10.8928 50.8763 10.2395 51.943 9.70618C53.0363 9.14618 54.2363 8.86618 55.543 8.86618C57.2763 8.86618 58.6496 9.35951 59.663 10.3462C60.703 11.3328 61.223 12.8528 61.223 14.9062V26.1862C61.223 26.7195 61.3296 27.1462 61.543 27.4662C61.7563 27.7862 62.1296 28.0262 62.663 28.1862L62.983 28.3062V28.7062H53.623V28.3062L54.103 28.1862C55.063 27.8662 55.543 27.1862 55.543 26.1462V13.5862C55.543 12.5195 55.3563 11.7862 54.983 11.3862C54.6363 10.9862 54.0096 10.7862 53.103 10.7862C52.5163 10.7862 51.8763 10.9062 51.183 11.1462C50.4896 11.3595 49.783 11.7462 49.063 12.3062V26.2262C49.063 27.2662 49.543 27.9328 50.503 28.2262L50.823 28.3062V28.7062H41.463ZM74.5861 8.86618C76.3194 8.86618 77.7994 9.22618 79.0261 9.94618C80.2528 10.6395 81.1861 11.5995 81.8261 12.8262C82.4928 14.0262 82.8261 15.3995 82.8261 16.9462C82.8261 17.2395 82.8128 17.5462 82.7861 17.8662C82.7594 18.1595 82.7061 18.4262 82.6261 18.6662H70.7061C70.7328 21.5462 71.2394 23.6262 72.2261 24.9062C73.2394 26.1595 74.7328 26.7862 76.7061 26.7862C78.0394 26.7862 79.1194 26.5728 79.9461 26.1462C80.7728 25.7195 81.5461 25.0928 82.2661 24.2662L82.6661 24.6262C81.8394 26.0928 80.7328 27.2395 79.3461 28.0662C77.9861 28.8928 76.3461 29.3062 74.4261 29.3062C72.5328 29.3062 70.8528 28.9062 69.3861 28.1062C67.9194 27.2795 66.7728 26.1062 65.9461 24.5862C65.1194 23.0662 64.7061 21.2528 64.7061 19.1462C64.7061 16.9595 65.1861 15.1062 66.1461 13.5862C67.1061 12.0395 68.3328 10.8662 69.8261 10.0662C71.3461 9.26618 72.9328 8.86618 74.5861 8.86618ZM74.4661 9.66618C73.6928 9.66618 73.0261 9.90618 72.4661 10.3862C71.9328 10.8395 71.5061 11.6662 71.1861 12.8662C70.8928 14.0395 70.7328 15.7062 70.7061 17.8662H77.5461C77.8128 14.9595 77.7061 12.8662 77.2261 11.5862C76.7461 10.3062 75.8261 9.66618 74.4661 9.66618ZM84.8195 28.7062V28.3062L85.4195 28.1462C85.9529 27.9862 86.3129 27.7462 86.4995 27.4262C86.7129 27.1062 86.8195 26.6928 86.8195 26.1862V13.6662C86.8195 13.0795 86.7129 12.6528 86.4995 12.3862C86.3129 12.0928 85.9529 11.8928 85.4195 11.7862L84.8195 11.6262V11.2262L91.6995 8.90618L92.0995 9.30618L92.4595 12.7462V13.0662C92.8329 12.3195 93.3129 11.6395 93.8995 11.0262C94.5129 10.3862 95.1795 9.86618 95.8995 9.46618C96.6462 9.06618 97.3795 8.86618 98.0995 8.86618C99.1129 8.86618 99.8862 9.14618 100.42 9.70618C100.953 10.2662 101.22 10.9728 101.22 11.8262C101.22 12.7328 100.953 13.4395 100.42 13.9462C99.9129 14.4262 99.2995 14.6662 98.5795 14.6662C97.4595 14.6662 96.4729 14.1062 95.6195 12.9862L95.5395 12.9062C95.2729 12.5328 94.9662 12.3328 94.6195 12.3062C94.2729 12.2528 93.9529 12.4128 93.6595 12.7862C93.3929 13.0262 93.1662 13.3195 92.9795 13.6662C92.8195 13.9862 92.6595 14.3595 92.4995 14.7862V25.9462C92.4995 27.0128 92.9662 27.6795 93.8995 27.9462L95.1795 28.3062V28.7062H84.8195ZM109.005 29.3062C107.698 29.3062 106.525 29.1462 105.485 28.8262C104.445 28.5328 103.485 28.1595 102.605 27.7062L102.645 22.9462H103.045L104.405 25.3462C104.992 26.4128 105.632 27.2128 106.325 27.7462C107.045 28.2528 107.952 28.5062 109.045 28.5062C110.325 28.5062 111.352 28.2262 112.125 27.6662C112.925 27.0795 113.325 26.3062 113.325 25.3462C113.325 24.4662 113.045 23.7462 112.485 23.1862C111.925 22.6262 110.885 22.1195 109.365 21.6662L107.685 21.1462C106.058 20.6662 104.778 19.9195 103.845 18.9062C102.912 17.8928 102.445 16.6528 102.445 15.1862C102.445 13.4262 103.138 11.9328 104.525 10.7062C105.912 9.47951 107.898 8.86618 110.485 8.86618C111.525 8.86618 112.498 8.98618 113.405 9.22618C114.338 9.43951 115.232 9.77284 116.085 10.2262L115.845 14.5462H115.445L114.045 12.0662C113.538 11.1862 113.032 10.5728 112.525 10.2262C112.045 9.85284 111.312 9.66618 110.325 9.66618C109.418 9.66618 108.565 9.91951 107.765 10.4262C106.965 10.9328 106.565 11.6528 106.565 12.5862C106.565 13.4928 106.898 14.2128 107.565 14.7462C108.258 15.2795 109.272 15.7728 110.605 16.2262L112.405 16.7462C114.325 17.3328 115.698 18.1462 116.525 19.1862C117.352 20.1995 117.765 21.4262 117.765 22.8662C117.765 24.8128 116.992 26.3728 115.445 27.5462C113.925 28.7195 111.778 29.3062 109.005 29.3062Z" fill="#353640"/>
</svg>
