<svg width="8" height="12" viewBox="0 0 8 12" fill="none" xmlns="http://www.w3.org/2000/svg">
<path d="M7.76324 2.04935C8.07559 1.58082 8.07559 0.819928 7.76324 0.351398C7.45088 -0.117133 6.94362 -0.117133 6.63127 0.351398L4 4.30205L1.36623 0.355146C1.05388 -0.113384 0.546619 -0.113384 0.234265 0.355146C-0.0780884 0.823676 -0.0780884 1.58457 0.234265 2.0531L2.86803 6L0.236764 9.95065C-0.0755896 10.4192 -0.0755896 11.1801 0.236764 11.6486C0.549118 12.1171 1.05638 12.1171 1.36873 11.6486L4 7.69795L6.63376 11.6449C6.94612 12.1134 7.45338 12.1134 7.76573 11.6449C8.07809 11.1763 8.07809 10.4154 7.76573 9.9469L5.13197 6L7.76324 2.04935Z" fill="white"/>
</svg>
