<svg width="21" height="16" viewBox="0 0 21 16" fill="none" xmlns="http://www.w3.org/2000/svg">
<path d="M4.886 15.268C3.554 15.268 2.474 14.8 1.646 13.864C0.854 12.892 0.458 11.632 0.458 10.084C0.458 8.068 1.052 6.196 2.24 4.468C3.428 2.704 4.904 1.39 6.668 0.526L6.992 1.174C6.236 1.75 5.57 2.488 4.994 3.388C4.418 4.288 4.004 5.404 3.752 6.736L4.886 7.006C6.146 7.294 7.118 7.834 7.802 8.626C8.522 9.382 8.882 10.3 8.882 11.38C8.882 12.532 8.486 13.468 7.694 14.188C6.938 14.908 6.002 15.268 4.886 15.268ZM16.28 15.268C14.948 15.268 13.868 14.8 13.04 13.864C12.248 12.892 11.852 11.632 11.852 10.084C11.852 8.068 12.446 6.196 13.634 4.468C14.822 2.704 16.298 1.39 18.062 0.526L18.386 1.174C17.63 1.75 16.964 2.488 16.388 3.388C15.812 4.288 15.398 5.404 15.146 6.736L16.28 7.006C17.54 7.294 18.512 7.834 19.196 8.626C19.916 9.382 20.276 10.3 20.276 11.38C20.276 12.532 19.88 13.468 19.088 14.188C18.332 14.908 17.396 15.268 16.28 15.268Z" fill="#E47249"/>
</svg>
